ply
format ascii 1.0
element vertex 12
property float32 x
property float32 y
property float32 z
element face 14
property list uint8 int32 vertex_indices
end_header
0 0 1.1547 
1 0 0.57735 
0.333333 0.942809 0.57735 
-1 0 0.57735 
-0.333333 -0.942809 0.57735 
1 0 -0.57735 
0.666667 -0.942809 0 
-0.666667 0.942809 0 
0.333333 0.942809 -0.57735 
-1 0 -0.57735 
-0.333333 -0.942809 -0.57735 
0 0 -1.1547 
3 0 1 2 
3 0 3 4 
3 1 6 5 
3 2 8 7 
3 3 7 9 
3 4 10 6 
3 5 11 8 
3 9 11 10 
4 0 2 7 3 
4 0 4 6 1 
4 1 5 8 2 
4 3 9 10 4 
4 5 6 10 11 
4 7 8 11 9 
