ply
format ascii 1.0
element vertex 30
property float32 x
property float32 y
property float32 z
element face 32
property list uint8 int32 vertex_indices
end_header
0 0 1.05146 
0.618034 0 0.850651 
0.276393 0.552786 0.850651 
-0.618034 0 0.850651 
-0.276393 -0.552786 0.850651 
1 0 0.32492 
0.723607 -0.552786 0.525731 
-0.17082 0.894427 0.525731 
0.447214 0.894427 0.32492 
-1 0 0.32492 
-0.723607 0.552786 0.525731 
0.17082 -0.894427 0.525731 
-0.447214 -0.894427 0.32492 
1 0 -0.32492 
0.894427 0.552786 0 
0.552786 -0.894427 0 
-0.552786 0.894427 0 
0.447214 0.894427 -0.32492 
-1 0 -0.32492 
-0.894427 -0.552786 0 
-0.447214 -0.894427 -0.32492 
0.618034 0 -0.850651 
0.723607 -0.552786 -0.525731 
0.17082 -0.894427 -0.525731 
-0.723607 0.552786 -0.525731 
-0.17082 0.894427 -0.525731 
0.276393 0.552786 -0.850651 
-0.618034 0 -0.850651 
-0.276393 -0.552786 -0.850651 
0 0 -1.05146 
3 0 1 2 
3 0 3 4 
3 1 6 5 
3 2 8 7 
3 3 10 9 
3 4 12 11 
3 5 13 14 
3 6 11 15 
3 7 16 10 
3 8 14 17 
3 9 18 19 
3 12 19 20 
3 13 22 21 
3 15 23 22 
3 16 25 24 
3 17 26 25 
3 18 24 27 
3 20 28 23 
3 21 29 26 
3 27 29 28 
5 0 2 7 10 3 
5 0 4 11 6 1 
5 1 5 14 8 2 
5 3 9 19 12 4 
5 5 6 15 22 13 
5 7 8 17 25 16 
5 9 10 16 24 18 
5 11 12 20 23 15 
5 13 21 26 17 14 
5 18 27 28 20 19 
5 21 22 23 28 29 
5 24 25 26 29 27 
