ply
format ascii 1.0
element vertex 24
property float32 x
property float32 y
property float32 z
element face 26
property list uint8 int32 vertex_indices
end_header
0 0 1.07072 
0.714813 0 0.797175 
-0.104682 0.707107 0.797175 
-0.684153 0.207107 0.797175 
-0.104682 -0.707107 0.797175 
0.610132 0.707107 0.523628 
1.04156 0.207107 0.136774 
0.610132 -0.707107 0.523628 
-0.357407 1 0.136774 
-0.788835 -0.5 0.523628 
-0.936878 0.5 0.136774 
-0.357407 -1 0.136774 
0.357407 1 -0.136774 
0.936878 -0.5 -0.136774 
0.788835 0.5 -0.523628 
0.357407 -1 -0.136774 
-0.610132 0.707107 -0.523628 
-1.04156 -0.207107 -0.136774 
-0.610132 -0.707107 -0.523628 
0.104682 0.707107 -0.797175 
0.684153 -0.207107 -0.797175 
0.104682 -0.707107 -0.797175 
-0.714813 0 -0.797175 
0 0 -1.07072 
3 0 2 3 
3 1 6 5 
3 4 9 11 
3 7 15 13 
3 8 16 10 
3 12 14 19 
3 17 22 18 
3 20 21 23 
4 0 1 5 2 
4 0 3 9 4 
4 0 4 7 1 
4 1 7 13 6 
4 2 5 12 8 
4 2 8 10 3 
4 3 10 17 9 
4 4 11 15 7 
4 5 6 14 12 
4 6 13 20 14 
4 8 12 19 16 
4 9 17 18 11 
4 10 16 22 17 
4 11 18 21 15 
4 13 15 21 20 
4 14 20 23 19 
4 16 19 23 22 
4 18 22 23 21 
