ply
format ascii 1.0
element vertex 24
property float32 x
property float32 y
property float32 z
element face 38
property list uint8 int32 vertex_indices
end_header
0 0 1.07736 
0.744206 0 0.779019 
0.312301 0.675508 0.779019 
-0.482096 0.566945 0.779019 
-0.716918 -0.199679 0.779019 
-0.119604 -0.734532 0.779019 
0.624602 -0.734532 0.480673 
1.05651 -0.199679 0.0680691 
0.886713 0.566945 0.230276 
0.26211 1.04277 0.0680691 
-0.532287 0.934211 0.0680691 
-1.00632 0.308242 0.230276 
-0.702082 -0.784071 0.230276 
0.0272883 -1.07486 0.0680691 
0.666727 -0.784071 -0.318466 
0.821685 -0.0911155 -0.690829 
0.651891 0.675508 -0.528621 
-0.119604 0.875187 -0.616812 
-0.809234 0.475829 -0.528621 
-0.99148 -0.276151 -0.318466 
-0.446741 -0.825648 -0.528621 
0.192697 -0.534854 -0.915157 
0.184631 0.258703 -1.02942 
-0.504999 -0.140654 -0.941226 
3 0 1 2 
3 0 2 3 
3 0 3 4 
3 0 4 5 
3 1 6 7 
3 1 7 8 
3 1 8 2 
3 2 8 9 
3 3 10 11 
3 3 11 4 
3 4 12 5 
3 5 12 13 
3 5 13 6 
3 6 13 14 
3 6 14 7 
3 7 14 15 
3 8 16 9 
3 9 16 17 
3 9 17 10 
3 10 17 18 
3 10 18 11 
3 11 18 19 
3 12 19 20 
3 12 20 13 
3 14 21 15 
3 15 21 22 
3 15 22 16 
3 16 22 17 
3 18 23 19 
3 19 23 20 
3 20 23 21 
3 21 23 22 
4 0 5 6 1 
4 2 9 10 3 
4 4 11 19 12 
4 7 15 16 8 
4 13 20 21 14 
4 17 22 23 18 
