ply
format ascii 1.0
element vertex 24
property float32 x
property float32 y
property float32 z
element face 14
property list uint8 int32 vertex_indices
end_header
0 0 1.04201 
0.562169 0 0.877355 
-0.479842 0.292893 0.877355 
0.256971 -0.5 0.877355 
0.877355 0.292893 0.479842 
-0.901468 0.207107 0.479842 
-0.596271 0.707107 0.479842 
0.140542 -0.914214 0.479842 
1.0179 0.207107 -0.0823278 
0.760926 0.707107 0.0823278 
-1.0179 -0.207107 0.0823278 
-0.281085 1 0.0823278 
-0.281085 -1 0.0823278 
0.281085 -1 -0.0823278 
0.901468 -0.207107 -0.479842 
0.281085 1 -0.0823278 
-0.760926 -0.707107 -0.0823278 
-0.877355 -0.292893 -0.479842 
-0.140542 0.914214 -0.479842 
0.596271 -0.707107 -0.479842 
0.479842 -0.292893 -0.877355 
-0.562169 0 -0.877355 
-0.256971 0.5 -0.877355 
0 0 -1.04201 
3 0 3 1 
3 2 6 5 
3 4 8 9 
3 7 12 13 
3 10 17 16 
3 11 15 18 
3 14 19 20 
3 21 22 23 
8 0 1 4 9 15 11 6 2 
8 0 2 5 10 16 12 7 3 
8 1 3 7 13 19 14 8 4 
8 5 6 11 18 22 21 17 10 
8 8 14 20 23 22 18 15 9 
8 12 16 17 21 23 20 19 13 
