ply
format ascii 1.0
element vertex 48
property float32 x
property float32 y
property float32 z
element face 26
property list uint8 int32 vertex_indices
end_header
0 0 1.02412 
0.431479 0 0.928785 
-0.0210629 0.430964 0.928785 
-0.341058 -0.264298 0.928785 
0.410416 0.430964 0.833453 
0.700624 -0.264298 0.698633 
-0.383184 0.597631 0.738121 
-0.391908 -0.638071 0.698633 
-0.703179 -0.0976311 0.738121 
0.658498 0.597631 0.507969 
0.649774 -0.638071 0.468482 
0.948706 -0.0976311 0.37315 
-0.463822 0.833333 0.37315 
-0.724242 0.333333 0.642789 
-0.75403 -0.471404 0.507969 
-0.122763 -0.902369 0.468482 
0.57786 0.833333 0.142998 
0.927643 0.333333 0.277818 
0.897856 -0.471404 0.142998 
0.308715 -0.902369 0.37315 
-0.80488 0.569036 0.277818 
-0.215739 1 0.047666 
-0.847005 -0.569036 0.0871538 
-0.215739 -1 0.047666 
0.847005 0.569036 -0.0871538 
0.215739 1 -0.047666 
0.80488 -0.569036 -0.277818 
0.215739 -1 -0.047666 
-0.897856 0.471404 -0.142998 
-0.308715 0.902369 -0.37315 
-0.927643 -0.333333 -0.277818 
-0.57786 -0.833333 -0.142998 
0.75403 0.471404 -0.507969 
0.122763 0.902369 -0.468482 
0.724242 -0.333333 -0.642789 
0.463822 -0.833333 -0.37315 
-0.948706 0.0976311 -0.37315 
-0.649774 0.638071 -0.468482 
-0.658498 -0.597631 -0.507969 
0.703179 0.0976311 -0.738121 
0.391908 0.638071 -0.698633 
0.383184 -0.597631 -0.738121 
-0.700624 0.264298 -0.698633 
-0.410416 -0.430964 -0.833453 
0.341058 0.264298 -0.928785 
0.0210629 -0.430964 -0.928785 
-0.431479 0 -0.928785 
0 0 -1.02412 
4 0 1 4 2 
4 3 8 14 7 
4 5 10 18 11 
4 6 12 20 13 
4 9 17 24 16 
4 15 23 27 19 
4 21 25 33 29 
4 22 30 38 31 
4 26 35 41 34 
4 28 37 42 36 
4 32 39 44 40 
4 43 46 47 45 
6 0 2 6 13 8 3 
6 1 5 11 17 9 4 
6 7 14 22 31 23 15 
6 10 19 27 35 26 18 
6 12 21 29 37 28 20 
6 16 24 32 40 33 25 
6 30 36 42 46 43 38 
6 34 41 45 47 44 39 
8 0 3 7 15 19 10 5 1 
8 2 4 9 16 25 21 12 6 
8 8 13 20 28 36 30 22 14 
8 11 18 26 34 39 32 24 17 
8 23 31 38 43 45 41 35 27 
8 29 33 40 44 47 46 42 37 
