ply
format ascii 1.0
element vertex 60
property float32 x
property float32 y
property float32 z
element face 32
property list uint8 int32 vertex_indices
end_header
0 0 1.01449 
0.336763 0 0.956959 
-0.290223 0.17082 0.956959 
0.163468 -0.294427 0.956959 
0.591433 0.17082 0.806354 
-0.596346 0.152786 0.806354 
-0.423052 0.447214 0.806354 
0.137742 -0.6 0.806354 
0.830204 0.152786 0.56267 
0.666736 0.447214 0.620196 
-0.801441 -0.0472136 0.620196 
-0.347749 0.723607 0.620196 
-0.0673526 -0.8 0.620196 
0.26941 -0.8 0.56267 
0.961872 -0.0472136 0.318986 
0.533907 0.723607 0.469591 
-0.827167 -0.352786 0.469591 
-0.959996 -0.0763932 0.318986 
-0.399202 0.876393 0.318986 
-0.0930789 0.894427 0.469591 
-0.373476 -0.818034 0.469591 
0.508181 -0.818034 0.318986 
0.936146 -0.352786 0.168381 
1.01145 -0.0763932 -0.0177765 
0.482454 0.876393 0.168381 
0.243684 0.894427 0.412065 
-0.663699 -0.647214 0.412065 
-1.01145 0.0763932 0.0177765 
-0.557757 0.847214 0.0177765 
-0.532031 -0.847214 0.168381 
0.557757 -0.847214 -0.0177765 
0.762851 -0.647214 0.168381 
0.959996 0.0763932 -0.318986 
0.532031 0.847214 -0.168381 
-0.961872 0.0472136 -0.318986 
-0.936146 0.352786 -0.168381 
-0.762851 0.647214 -0.168381 
-0.508181 0.818034 -0.318986 
-0.482454 -0.876393 -0.168381 
0.399202 -0.876393 -0.318986 
0.801441 0.0472136 -0.620196 
0.827167 0.352786 -0.469591 
0.663699 0.647214 -0.412065 
0.373476 0.818034 -0.469591 
-0.830204 -0.152786 -0.56267 
-0.26941 0.8 -0.56267 
-0.533907 -0.723607 -0.469591 
-0.243684 -0.894427 -0.412065 
0.0930789 -0.894427 -0.469591 
0.347749 -0.723607 -0.620196 
0.596346 -0.152786 -0.806354 
0.0673526 0.8 -0.620196 
-0.666736 -0.447214 -0.620196 
-0.591433 -0.17082 -0.806354 
-0.137742 0.6 -0.806354 
0.423052 -0.447214 -0.806354 
0.290223 -0.17082 -0.956959 
-0.336763 0 -0.956959 
-0.163468 0.294427 -0.956959 
0 0 -1.01449 
3 0 3 1 
3 2 6 5 
3 4 8 9 
3 7 12 13 
3 10 17 16 
3 11 19 18 
3 14 22 23 
3 15 24 25 
3 20 26 29 
3 21 30 31 
3 27 35 34 
3 28 37 36 
3 32 40 41 
3 33 42 43 
3 38 46 47 
3 39 48 49 
3 44 53 52 
3 45 51 54 
3 50 55 56 
3 57 58 59 
10 0 1 4 9 15 25 19 11 6 2 
10 0 2 5 10 16 26 20 12 7 3 
10 1 3 7 13 21 31 22 14 8 4 
10 5 6 11 18 28 36 35 27 17 10 
10 8 14 23 32 41 42 33 24 15 9 
10 12 20 29 38 47 48 39 30 21 13 
10 16 17 27 34 44 52 46 38 29 26 
10 18 19 25 24 33 43 51 45 37 28 
10 22 31 30 39 49 55 50 40 32 23 
10 34 35 36 37 45 54 58 57 53 44 
10 40 50 56 59 58 54 51 43 42 41 
10 46 52 53 57 59 56 55 49 48 47 
