ply
format ascii 1.0
element vertex 60
property float32 x
property float32 y
property float32 z
element face 32
property list uint8 int32 vertex_indices
end_header
0 0 1.021 
0.403548 0 0.937864 
-0.227464 0.333333 0.937864 
-0.147123 -0.375774 0.937864 
0.579632 0.333333 0.771593 
0.505832 -0.375774 0.803348 
-0.602051 0.290893 0.771593 
-0.0513806 0.666667 0.771593 
0.165499 -0.608015 0.803348 
-0.52171 -0.418215 0.771593 
0.858 0.290893 0.470806 
0.352168 0.666667 0.688458 
0.7842 -0.418215 0.502561 
-0.657475 0.597996 0.502561 
-0.749174 -0.0848813 0.688458 
-0.317142 0.830237 0.502561 
0.103533 -0.882697 0.502561 
-0.583675 -0.692896 0.470806 
0.802576 0.597996 0.201774 
0.960284 -0.0848813 0.33629 
0.489955 0.830237 0.33629 
0.722234 -0.692896 0.201774 
-0.860021 0.529326 0.150394 
-0.95172 -0.153552 0.33629 
-0.179355 0.993808 0.150394 
0.381901 -0.925138 0.201774 
-0.271054 -0.925138 0.33629 
-0.849436 -0.529326 0.201774 
0.849436 0.529326 -0.201774 
1.00714 -0.153552 -0.067258 
0.224193 0.993808 0.067258 
0.860021 -0.529326 -0.150394 
-0.722234 0.692896 -0.201774 
-1.00714 0.153552 0.067258 
-0.381901 0.925138 -0.201774 
0.179355 -0.993808 -0.150394 
-0.224193 -0.993808 -0.067258 
-0.802576 -0.597996 -0.201774 
0.583675 0.692896 -0.470806 
0.95172 0.153552 -0.33629 
0.271054 0.925138 -0.33629 
0.657475 -0.597996 -0.502561 
-0.7842 0.418215 -0.502561 
-0.960284 0.0848813 -0.33629 
-0.103533 0.882697 -0.502561 
0.317142 -0.830237 -0.502561 
-0.489955 -0.830237 -0.33629 
-0.858 -0.290893 -0.470806 
0.52171 0.418215 -0.771593 
0.749174 0.0848813 -0.688458 
0.602051 -0.290893 -0.771593 
-0.505832 0.375774 -0.803348 
-0.165499 0.608015 -0.803348 
0.0513806 -0.666667 -0.771593 
-0.352168 -0.666667 -0.688458 
-0.579632 -0.333333 -0.771593 
0.147123 0.375774 -0.937864 
0.227464 -0.333333 -0.937864 
-0.403548 0 -0.937864 
0 0 -1.021 
5 0 3 8 5 1 
5 2 7 15 13 6 
5 4 10 18 20 11 
5 9 14 23 27 17 
5 12 21 31 29 19 
5 16 26 36 35 25 
5 22 32 42 43 33 
5 24 30 40 44 34 
5 28 39 49 48 38 
5 37 47 55 54 46 
5 41 45 53 57 50 
5 51 52 56 59 58 
6 0 1 4 11 7 2 
6 0 2 6 14 9 3 
6 1 5 12 19 10 4 
6 3 9 17 26 16 8 
6 5 8 16 25 21 12 
6 6 13 22 33 23 14 
6 7 11 20 30 24 15 
6 10 19 29 39 28 18 
6 13 15 24 34 32 22 
6 17 27 37 46 36 26 
6 18 28 38 40 30 20 
6 21 25 35 45 41 31 
6 23 33 43 47 37 27 
6 29 31 41 50 49 39 
6 32 34 44 52 51 42 
6 35 36 46 54 53 45 
6 38 48 56 52 44 40 
6 42 51 58 55 47 43 
6 48 49 50 57 59 56 
6 53 54 55 58 59 57 
