ply
format ascii 1.0
element vertex 24
property float32 x
property float32 y
property float32 z
element face 14
property list uint8 int32 vertex_indices
end_header
0 0 1.05409 
0.632456 0 0.843274 
-0.421637 0.471404 0.843274 
-0.0702728 -0.628539 0.843274 
0.843274 0.471404 0.421637 
0.562183 -0.628539 0.632456 
-0.913547 0.31427 0.421637 
-0.210818 0.942809 0.421637 
-0.562183 -0.785674 0.421637 
0.98382 0.31427 -0.210818 
0.421637 0.942809 0.210818 
0.702728 -0.785674 0 
-0.702728 0.785674 0 
-0.98382 -0.31427 0.210818 
-0.421637 -0.942809 -0.210818 
0.562183 0.785674 -0.421637 
0.913547 -0.31427 -0.421637 
0.210818 -0.942809 -0.421637 
-0.562183 0.628539 -0.632456 
-0.843274 -0.471404 -0.421637 
0.0702728 0.628539 -0.843274 
0.421637 -0.471404 -0.843274 
-0.632456 0 -0.843274 
0 0 -1.05409 
4 0 3 5 1 
4 2 7 12 6 
4 4 9 15 10 
4 8 13 19 14 
4 11 17 21 16 
4 18 20 23 22 
6 0 1 4 10 7 2 
6 0 2 6 13 8 3 
6 1 5 11 16 9 4 
6 3 8 14 17 11 5 
6 6 12 18 22 19 13 
6 7 10 15 20 18 12 
6 9 16 21 23 20 15 
6 14 19 22 23 21 17 
