ply
format ascii 1.0
element vertex 12
property float32 x
property float32 y
property float32 z
element face 8
property list uint8 int32 vertex_indices
end_header
0 0 1.10554 
0.852803 0 0.703526 
-0.710669 0.471404 0.703526 
0.331646 -0.785674 0.703526 
0.994937 0.471404 -0.100504 
-1.08969 0.157135 -0.100504 
-0.568535 0.942809 -0.100504 
-0.0473779 -1.09994 -0.100504 
0.615913 0.157135 -0.904534 
0.284268 0.942809 -0.502519 
-0.758047 -0.628539 -0.502519 
0.0947559 -0.628539 -0.904534 
3 0 3 1 
3 2 6 5 
3 4 8 9 
3 7 10 11 
6 0 1 4 9 6 2 
6 0 2 5 10 7 3 
6 1 3 7 11 8 4 
6 5 6 9 8 11 10 
