ply
format ascii 1.0
element vertex 11
property float32 x
property float32 y
property float32 z
element face 16
property list uint8 int32 vertex_indices
end_header
-0.684500 -0.403400 0.595200
-0.633900 0.589400 0.486200
-0.475500 -0.822300 -0.288500
-0.393500 0.784000 -0.464800
-0.295600 -0.088500 -0.943600
0.127800 0.092500 0.902000
0.225700 -0.780000 0.423200
0.307700 0.826300 0.246900
0.466100 -0.585400 -0.527800
0.516700 0.407400 -0.636800
0.839000 -0.020000 0.208000
3 6 2 8 
3 8 2 4 
3 8 4 9 
3 9 4 3 
3 9 3 7 
3 7 3 1 
3 7 1 5 
3 5 1 0 
3 5 0 6 
3 6 0 2 
3 6 8 10 
3 8 9 10 
3 9 7 10 
3 7 5 10 
3 5 6 10 
5 1 3 4 2 0 
