ply
format ascii 1.0
element vertex 10
property float32 x
property float32 y
property float32 z
element face 16
property list uint8 int32 vertex_indices
end_header
-0.693300 0.433100 0.091900
-0.602400 -0.504400 -0.243800
-0.338800 -0.281600 0.694800
-0.197900 0.252100 -0.757700
-0.030900 1.098600 -0.252100
0.030900 -1.098600 0.252100
0.174900 0.567200 0.569600
0.361800 -0.537700 -0.506700
0.625500 -0.314900 0.431800
0.670300 0.386100 -0.279900
3 6 8 9 
3 9 8 7 
3 9 7 3 
3 3 7 1 
3 3 1 0 
3 0 1 2 
3 0 2 6 
3 6 2 8 
3 6 9 4 
3 9 3 4 
3 3 0 4 
3 0 6 4 
3 7 8 5 
3 1 7 5 
3 2 1 5 
3 8 2 5 
