ply
format ascii 1.0
element vertex 16
property float32 x
property float32 y
property float32 z
element face 18
property list uint8 int32 vertex_indices
end_header
-1.285600 -0.090100 -0.215100
-1.004100 0.835100 0.039100
-0.814000 -0.962600 -0.343300
-0.718100 -0.464300 0.518400
-0.567500 0.374200 -0.733500
-0.436600 0.461000 0.772600
-0.134400 1.271200 0.270400
-0.095900 -0.498300 -0.861700
0.134400 -1.271200 -0.270400
0.230300 -0.772900 0.591300
0.302200 0.810200 -0.502200
0.511800 0.152400 0.845500
0.773800 -0.062200 -0.630400
0.814000 0.962600 0.343300
1.004100 -0.835100 -0.039100
1.285600 0.090100 0.215100
3 4 0 1 
3 10 6 13 
3 12 15 14 
3 7 8 2 
3 3 0 2 
3 9 8 14 
3 11 15 13 
3 5 6 1 
4 7 4 10 12 
4 4 7 2 0 
4 10 4 1 6 
4 12 10 13 15 
4 7 12 14 8 
4 5 3 9 11 
4 3 5 1 0 
4 9 3 2 8 
4 11 9 14 15 
4 5 11 13 6 
