ply
format ascii 1.0
element vertex 25
property float32 x
property float32 y
property float32 z
element face 27
property list uint8 int32 vertex_indices
end_header
-1.604100 0.399600 -0.032800
-1.404400 0.024100 0.872300
-1.246000 0.509900 -0.959900
-1.074100 -0.335900 -0.454900
-1.001200 0.895300 0.592400
-0.874500 -0.711500 0.450200
-0.723200 -0.473300 1.409500
-0.466800 0.312800 -1.555000
-0.421700 1.073800 -0.907800
-0.295000 -0.533000 -1.050000
-0.270500 1.312000 0.051600
-0.070800 0.936500 0.956600
0.028000 -1.140600 0.414400
0.101000 0.090600 1.461700
0.179300 -0.902400 1.373800
0.386200 -1.030300 -0.512700
0.435700 -0.116300 -1.590700
0.508600 1.114900 -0.543500
0.831700 0.507300 0.920900
0.958400 -1.099500 0.778700
1.038600 0.379400 -0.965600
1.116900 -0.613700 -1.053500
1.189800 0.617600 -0.006200
1.316600 -0.989200 -0.148400
1.361600 -0.228200 0.498800
3 3 0 2 
3 9 7 16 
3 15 21 23 
3 12 19 14 
3 5 6 1 
3 18 24 22 
3 24 19 23 
3 22 20 17 
3 20 21 16 
3 17 8 10 
3 8 7 2 
3 10 4 11 
3 4 0 1 
3 11 13 18 
3 13 6 14 
4 3 5 1 0 
4 9 3 2 7 
4 15 9 16 21 
4 12 15 23 19 
4 5 12 14 6 
5 5 3 9 15 12 
5 18 22 17 10 11 
5 18 13 14 19 24 
5 22 24 23 21 20 
5 17 20 16 7 8 
5 10 8 2 0 4 
5 11 4 1 6 13 
