ply
format ascii 1.0
element vertex 30
property float32 x
property float32 y
property float32 z
element face 32
property list uint8 int32 vertex_indices
end_header
-1.579200 0.034300 0.350500
-1.454000 -0.545000 -0.454900
-1.295800 0.962700 0.110400
-1.259500 -0.907300 0.456700
-1.101300 0.600500 1.022000
-1.093100 0.025400 -1.192700
-0.995300 0.957200 -0.843300
-0.847800 -1.333300 -0.348900
-0.584000 -0.922900 1.193800
-0.517300 1.523400 -0.171800
-0.486200 0.008900 1.543200
-0.314600 0.586100 -1.475000
-0.263800 -0.410300 -1.542800
-0.202700 0.937400 1.303200
-0.112200 -1.250000 -1.021200
0.082200 -1.612200 -0.109700
0.158200 1.507800 0.565400
0.245300 -1.358600 0.843800
0.314600 -0.586100 1.475000
0.458700 1.502300 -0.388400
0.584000 0.922900 -1.193800
0.666200 -0.689300 -1.303500
0.773300 0.916200 1.086600
0.980900 -1.275400 0.171500
1.093100 -0.025400 1.192700
1.190200 0.134700 -1.087800
1.259500 0.907300 -0.456700
1.341800 -0.705000 -0.566300
1.454000 0.545000 0.454900
1.504800 -0.451400 0.387100
3 15 7 14 
3 7 3 1 
3 14 12 21 
3 12 5 11 
3 21 25 27 
3 25 20 26 
3 27 29 23 
3 29 28 24 
3 23 17 15 
3 17 18 8 
3 4 10 13 
3 10 8 18 
3 13 22 16 
3 22 24 28 
3 16 19 9 
3 19 26 20 
3 9 6 2 
3 6 11 5 
3 2 0 4 
3 0 1 3 
5 15 14 21 27 23 
5 15 17 8 3 7 
5 14 7 1 5 12 
5 21 12 11 20 25 
5 27 25 26 28 29 
5 23 29 24 18 17 
5 4 13 16 9 2 
5 4 0 3 8 10 
5 13 10 18 24 22 
5 16 22 28 26 19 
5 9 19 20 11 6 
5 2 6 5 1 0 
