ply
format ascii 1.0
element vertex 30
property float32 x
property float32 y
property float32 z
element face 32
property list uint8 int32 vertex_indices
end_header
-1.593200 0.343700 -0.459800
-1.567100 0.347800 0.539800
-1.494500 -0.651400 -0.458400
-1.468400 -0.647300 0.541300
-1.088400 1.206800 -0.476600
-1.062200 1.210800 0.523100
-0.873100 -0.088100 -1.002900
-0.830000 -1.398500 -0.472700
-0.803800 -1.394400 0.526900
-0.707100 0.433800 1.042800
-0.608400 -0.561300 1.044300
-0.368200 0.775000 -1.019600
-0.208500 -0.835200 -1.017200
-0.172800 1.608100 -0.502200
-0.146600 1.612200 0.497500
0.146600 -1.612200 -0.497500
0.172800 -1.608100 0.502200
0.208500 0.835200 1.017200
0.368200 -0.775000 1.019600
0.608400 0.561300 -1.044300
0.707100 -0.433800 -1.042800
0.803800 1.394400 -0.526900
0.830000 1.398500 0.472700
0.873100 0.088100 1.002900
1.062200 -1.210800 -0.523100
1.088400 -1.206800 0.476600
1.468400 0.647300 -0.541300
1.494500 0.651400 0.458400
1.567100 -0.347800 -0.539800
1.593200 -0.343700 0.459800
3 11 4 13 
3 19 21 26 
3 20 28 24 
3 12 15 7 
3 6 2 0 
3 9 5 1 
3 10 3 8 
3 18 16 25 
3 23 29 27 
3 17 22 14 
4 11 6 0 4 
4 19 11 13 21 
4 20 19 26 28 
4 12 20 24 15 
4 6 12 7 2 
4 9 17 14 5 
4 10 9 1 3 
4 18 10 8 16 
4 23 18 25 29 
4 17 23 27 22 
4 24 25 16 15 
4 15 16 8 7 
4 7 8 3 2 
4 2 3 1 0 
4 0 1 5 4 
4 4 5 14 13 
4 13 14 22 21 
4 21 22 27 26 
4 26 27 29 28 
4 28 29 25 24 
5 6 11 19 20 12 
5 17 9 10 18 23 
