ply
format ascii 1.0
element vertex 40
property float32 x
property float32 y
property float32 z
element face 42
property list uint8 int32 vertex_indices
end_header
-2.035500 -0.316000 -0.033800
-1.879800 0.341500 -0.770900
-1.811900 0.634300 0.182900
-1.648900 -1.194000 -0.316000
-1.581100 -0.901200 0.637800
-1.396900 -0.130100 -1.508700
-1.254200 -1.079100 -1.227600
-1.219200 0.636400 0.988300
-1.173200 0.820200 -1.292100
-1.076500 -0.312600 1.269400
-1.063400 1.293900 0.251100
-0.799700 -1.664300 -0.556000
-0.689900 -1.190600 0.987200
-0.668700 1.408800 -0.660500
-0.547600 -0.600400 -1.748800
-0.343500 0.889800 1.399400
-0.207000 -1.662200 0.249400
-0.200900 -0.059200 1.680500
-0.187700 1.547300 0.662200
-0.185800 0.937200 -1.398300
0.185800 -0.937200 1.398300
0.187700 -1.547300 -0.662200
0.200900 0.059200 -1.680500
0.207000 1.662200 -0.249400
0.343500 -0.889800 -1.399400
0.547600 0.600400 1.748800
0.668700 -1.408800 0.660500
0.689900 1.190600 -0.987200
0.799700 1.664300 0.556000
1.063400 -1.293900 -0.251100
1.076500 0.312600 -1.269400
1.173200 -0.820200 1.292100
1.219200 -0.636400 -0.988300
1.254200 1.079100 1.227600
1.396900 0.130100 1.508700
1.581100 0.901200 -0.637800
1.648900 1.194000 0.316000
1.811900 -0.634300 -0.182900
1.879800 -0.341500 0.770900
2.035500 0.316000 0.033800
3 0 2 1 
3 2 7 10 
3 1 8 5 
3 8 13 19 
3 5 14 6 
3 14 22 24 
3 6 11 3 
3 11 21 16 
3 3 4 0 
3 4 12 9 
3 33 25 34 
3 25 15 17 
3 34 31 38 
3 31 20 26 
3 38 37 39 
3 37 29 32 
3 39 35 36 
3 35 30 27 
3 36 28 33 
3 28 23 18 
4 24 32 29 21 
4 21 29 26 16 
4 16 26 20 12 
4 12 20 17 9 
4 9 17 15 7 
4 7 15 18 10 
4 10 18 23 13 
4 13 23 27 19 
4 19 27 30 22 
4 22 30 32 24 
5 0 1 5 6 3 
5 0 4 9 7 2 
5 1 2 10 13 8 
5 5 8 19 22 14 
5 6 14 24 21 11 
5 3 11 16 12 4 
5 33 34 38 39 36 
5 33 28 18 15 25 
5 34 25 17 20 31 
5 38 31 26 29 37 
5 39 37 32 30 35 
5 36 35 27 23 28 
