ply
format ascii 1.0
element vertex 24
property float32 x
property float32 y
property float32 z
element face 34
property list uint8 int32 vertex_indices
end_header
-1.342600 -0.293700 0.058400
-1.138700 0.568600 0.521800
-1.059000 0.107300 -0.812700
-0.929000 -0.301000 0.968800
-0.876400 -0.857500 -0.623400
-0.855100 0.969600 -0.349300
-0.787000 -1.072800 0.349000
-0.410300 0.520700 1.205300
-0.384200 1.224400 0.495300
-0.195800 0.172300 -1.313500
-0.093600 -0.846800 1.033200
-0.067600 -1.342700 -0.291000
-0.013300 -0.792500 -1.124200
0.008000 1.034700 -0.850100
0.425100 -0.025200 1.269700
0.465100 0.910800 0.919900
0.478900 1.289500 -0.005500
0.625800 -1.116800 0.393200
0.741200 -0.136700 -1.150700
0.807800 -0.952600 -0.576400
0.945100 0.725700 -0.687300
1.144500 -0.295100 0.629600
1.184500 0.640900 0.279900
1.326400 -0.131000 -0.339900
3 13 16 20 
3 9 18 12 
3 2 4 0 
3 5 1 8 
3 14 15 7 
3 10 3 6 
3 17 11 19 
3 21 23 22 
3 12 11 4 
3 4 11 6 
3 4 6 0 
3 0 6 3 
3 0 3 1 
3 1 3 7 
3 1 7 8 
3 8 7 15 
3 8 15 16 
3 16 15 22 
3 16 22 20 
3 20 22 23 
3 20 23 18 
3 18 23 19 
3 18 19 12 
3 12 19 11 
4 5 13 9 2 
4 13 5 8 16 
4 9 13 20 18 
4 2 9 12 4 
4 5 2 0 1 
4 21 14 10 17 
4 14 21 22 15 
4 10 14 7 3 
4 17 10 6 11 
4 21 17 19 23 
