ply
format ascii 1.0
element vertex 14
property float32 x
property float32 y
property float32 z
element face 12
property list uint8 int32 vertex_indices
end_header
0.5 0.353553 0.866025 
-0.5 0.707107 0.866025 
-0.5 -0.353553 0.866025 
0.5 -0.707107 0.866025 
1 -0.353553 0 
1 0.707107 0 
0 1.06066 0 
-1 0.353553 0 
-1 -0.707107 0 
0 -1.06066 0 
0.5 -0.707107 -0.866025 
0.5 0.353553 -0.866025 
-0.5 0.707107 -0.866025 
-0.5 -0.353553 -0.866025 
4 3 0 1 2 
4 3 4 5 0 
4 0 5 6 1 
4 1 7 8 2 
4 2 8 9 3 
4 5 4 10 11 
4 4 3 9 10 
4 1 6 12 7 
4 6 5 11 12 
4 8 7 12 13 
4 9 8 13 10 
4 10 13 12 11 
