ply
format ascii 1.0
element vertex 32
property float32 x
property float32 y
property float32 z
element face 30
property list uint8 int32 vertex_indices
end_header
0.309017 0.190983 0.951056 
-0.309017 0.5 0.951056 
-0.309017 -0.190983 0.951056 
0.309017 -0.5 0.951056 
0.809017 -0.190983 0.587785 
0.809017 0.5 0.587785 
0.190983 0.809017 0.587785 
-0.809017 0.190983 0.587785 
-0.809017 -0.5 0.587785 
-0.190983 -0.809017 0.587785 
1 -0.5 0 
1 0.190983 0 
0.5 -0.809017 0.363271 
0 1.11803 0 
-0.5 0.809017 0.363271 
0.618034 0.809017 0 
-1 0.5 0 
-1 -0.190983 0 
0 -1.11803 0 
-0.618034 -0.809017 0 
0.809017 -0.190983 -0.587785 
0.809017 0.5 -0.587785 
0.5 -0.809017 -0.363271 
-0.5 0.809017 -0.363271 
0.190983 0.809017 -0.587785 
-0.809017 0.190983 -0.587785 
-0.809017 -0.5 -0.587785 
-0.190983 -0.809017 -0.587785 
0.309017 -0.5 -0.951056 
0.309017 0.190983 -0.951056 
-0.309017 0.5 -0.951056 
-0.309017 -0.190983 -0.951056 
4 3 0 1 2 
4 3 4 5 0 
4 0 5 6 1 
4 1 7 8 2 
4 2 8 9 3 
4 5 4 10 11 
4 4 3 12 10 
4 1 6 13 14 
4 6 5 15 13 
4 8 7 16 17 
4 7 1 14 16 
4 3 9 18 12 
4 9 8 19 18 
4 10 20 21 11 
4 11 21 15 5 
4 12 18 22 10 
4 13 23 16 14 
4 15 21 24 13 
4 16 25 26 17 
4 17 26 19 8 
4 19 26 27 18 
4 21 20 28 29 
4 20 10 22 28 
4 22 18 27 28 
4 16 23 30 25 
4 23 13 24 30 
4 24 21 29 30 
4 26 25 30 31 
4 27 26 31 28 
4 28 31 30 29 
