ply
format ascii 1.0
element vertex 26
property float32 x
property float32 y
property float32 z
element face 24
property list uint8 int32 vertex_indices
end_header
0.357407 0.414214 0.933949 
-0.276439 0.320377 0.933949 
-0.462089 -0.292893 0.933949 
0.357407 -0.414214 0.933949 
0.967538 -0.292893 0.386854 
0.829319 0.320377 0.510794 
0.148043 1 0.386854 
-0.610132 0.707107 0.547095 
-1.0109 0 0.386854 
-0.438374 -0.773459 0.510794 
0.148043 -1 0.386854 
0.819495 0.707107 0 
1.0109 0 -0.386854 
0.667384 -0.773459 0.0876383 
-0.148043 1 -0.386854 
-0.667384 0.773459 -0.0876383 
-0.819495 -0.707107 0 
-0.967538 0.292893 -0.386854 
-0.148043 -1 -0.386854 
0.438374 0.773459 -0.510794 
0.610132 -0.707107 -0.547095 
0.462089 0.292893 -0.933949 
-0.357407 0.414214 -0.933949 
-0.829319 -0.320377 -0.510794 
-0.357407 -0.414214 -0.933949 
0.276439 -0.320377 -0.933949 
4 3 0 1 2 
4 3 4 5 0 
4 0 6 7 1 
4 1 7 8 2 
4 2 9 10 3 
4 0 5 11 6 
4 5 4 12 11 
4 4 3 10 13 
4 7 6 14 15 
4 2 8 16 9 
4 8 7 15 17 
4 10 9 16 18 
4 11 19 14 6 
4 4 13 20 12 
4 12 21 19 11 
4 10 18 20 13 
4 14 22 17 15 
4 8 17 23 16 
4 16 23 24 18 
4 14 19 21 22 
4 12 20 25 21 
4 20 18 24 25 
4 17 22 24 23 
4 21 25 24 22 
