ply
format ascii 1.0
element vertex 38
property float32 x
property float32 y
property float32 z
element face 24
property list uint8 int32 vertex_indices
end_header
0.372103 0.237915 0.928191 
-0.0598019 0.437593 0.928191 
-0.422294 0.129352 0.928191 
-0.294624 -0.32903 0.928191 
0.372103 -0.437593 0.928191 
0.854199 -0.32903 0.467639 
0.946515 0.129352 0.379449 
0.684404 0.437593 0.629846 
0.51461 0.80486 0.379449 
-0.131055 0.95898 0.504647 
-0.711693 0.637272 0.379449 
-0.77672 0.237915 0.629846 
-1.01777 -0.283472 0.274371 
-0.541898 -0.605181 0.629846 
-0.279788 -0.913423 0.379449 
0.187472 -0.895975 0.467639 
0.464419 -0.913423 0.0811035 
0.826911 -0.605181 0.0811035 
0.896324 -0.378569 -0.331501 
1.01777 0.283472 -0.274371 
0.634214 0.80486 -0.0811035 
0.279788 0.913423 -0.379449 
-0.137281 1.00454 -0.169294 
-0.51461 0.80486 -0.379449 
-0.826911 0.605181 -0.0811035 
-0.988639 0.17889 -0.217242 
-0.753817 -0.664205 -0.217242 
-0.395006 -0.945514 -0.0811035 
0.131055 -0.95898 -0.504647 
0.592089 -0.496618 -0.677794 
0.422294 -0.129352 -0.928191 
0.584023 0.296939 -0.792053 
0.252499 0.637272 -0.765984 
-0.372103 0.437593 -0.928191 
-0.812075 0.0207885 -0.629846 
-0.684404 -0.437593 -0.629846 
-0.267336 -0.528709 -0.840001 
-0.0449656 -0.146799 -1.01638 
5 4 0 1 2 3 
5 0 4 5 6 7 
5 1 0 7 8 9 
5 2 1 9 10 11 
5 3 2 11 12 13 
5 4 3 13 14 15 
5 5 4 15 16 17 
5 6 5 17 18 19 
5 7 6 19 20 8 
5 9 8 20 21 22 
5 10 9 22 23 24 
5 11 10 24 25 12 
5 13 12 26 27 14 
5 15 14 27 28 16 
5 17 16 28 29 18 
5 19 18 29 30 31 
5 20 19 31 32 21 
5 22 21 32 33 23 
5 24 23 33 34 25 
5 12 25 34 35 26 
5 27 26 35 36 28 
5 29 28 36 37 30 
5 31 30 37 33 32 
5 34 33 37 36 35 
