ply
format ascii 1.0
element vertex 14
property float32 x
property float32 y
property float32 z
element face 24
property list uint8 int32 vertex_indices
end_header
0.281085 1 0.959683 
-0.760926 -0.707107 0.959683 
0.281085 -0.171573 0.959683 
1.15844 -0.707107 0.397514 
-0.678598 0.414214 0.630372 
0.911457 0.414214 0.164656 
-1.15844 0.707107 -0.397514 
0.0482265 -1 0.164656 
0.760926 0.707107 -0.959683 
-0.911457 -0.414214 -0.164656 
-0.0482265 1 -0.164656 
-0.281085 -1 -0.959683 
0.678598 -0.414214 -0.630372 
-0.281085 0.171573 -0.959683 
3 2 0 1 
3 2 3 0 
3 0 4 1 
3 1 3 2 
3 0 3 5 
3 1 4 6 
3 4 0 6 
3 3 1 7 
3 3 8 5 
3 5 8 0 
3 6 9 1 
3 0 10 6 
3 1 11 7 
3 7 11 3 
3 8 3 12 
3 0 8 10 
3 1 9 11 
3 9 6 11 
3 6 10 8 
3 3 11 12 
3 12 11 8 
3 6 13 11 
3 8 13 6 
3 8 11 13 
