ply
format ascii 1.0
element vertex 26
property float32 x
property float32 y
property float32 z
element face 48
property list uint8 int32 vertex_indices
end_header
0.215739 0.226541 0.976451 
-0.424251 0.195262 0.976451 
0.215739 -0.630602 0.976451 
0.796155 0.195262 0.706811 
0.136046 1 0.615752 
-0.575644 -0.38673 0.755245 
0.840257 -0.38673 0.442412 
-0.624518 0.613271 0.534039 
-0.568077 -0.861929 0.325484 
-1.15439 0 0.255053 
0.791384 0.613271 0.221206 
0.652329 -0.861929 0.0558442 
1.15439 0 -0.255053 
-0.652329 0.861929 -0.0558442 
0.0488738 -1 0.221206 
0.568077 0.861929 -0.325484 
-0.0488738 1 -0.221206 
-0.791384 -0.613271 -0.221206 
-0.136046 -1 -0.615752 
0.624518 -0.613271 -0.534039 
-0.840257 0.38673 -0.442412 
-0.215739 0.630602 -0.976451 
-0.796155 -0.195262 -0.706811 
0.575644 0.38673 -0.755245 
0.424251 -0.195262 -0.976451 
-0.215739 -0.226541 -0.976451 
3 2 0 1 
3 2 3 0 
3 0 4 1 
3 1 5 2 
3 0 3 4 
3 3 2 6 
3 1 4 7 
3 2 5 8 
3 5 1 9 
3 3 10 4 
3 2 11 6 
3 6 12 3 
3 4 13 7 
3 7 9 1 
3 5 9 8 
3 8 14 2 
3 4 10 15 
3 10 3 12 
3 6 11 12 
3 11 2 14 
3 7 13 9 
3 13 4 16 
3 8 9 17 
3 14 8 18 
3 10 12 15 
3 15 16 4 
3 11 19 12 
3 14 18 11 
3 13 20 9 
3 16 21 13 
3 9 22 17 
3 17 18 8 
3 15 12 23 
3 16 15 21 
3 12 19 24 
3 19 11 18 
3 9 20 22 
3 20 13 21 
3 17 22 18 
3 12 24 23 
3 23 21 15 
3 19 18 24 
3 20 21 22 
3 22 25 18 
3 23 24 21 
3 24 18 25 
3 22 21 25 
3 24 25 21 
