ply
format ascii 1.0
element vertex 32
property float32 x
property float32 y
property float32 z
element face 60
property list uint8 int32 vertex_indices
end_header
0.168381 0.618034 0.985722 
-0.458605 -0.447214 0.985722 
0.168381 -0.0991064 0.985722 
0.759815 -0.447214 0.777591 
-0.440828 0.259464 0.864969 
0.702962 0.259464 0.669586 
-0.939182 0.552786 0.440828 
0.114379 -0.740536 0.669586 
1.03226 0.552786 0.104065 
-0.871343 -0.160358 0.474204 
-0.28276 0.839643 0.474204 
0.0177765 -1.17082 0.104065 
0.979348 -0.160358 0.158068 
0.424141 0.839643 0.353451 
-1.03226 -0.552786 -0.104065 
-0.0177765 1.17082 -0.104065 
-0.528206 -0.778391 0.353451 
0.615584 -0.778391 0.158068 
0.939182 -0.552786 -0.440828 
-0.979348 0.160358 -0.158068 
-0.615584 0.778391 -0.158068 
0.871343 0.160358 -0.474204 
0.528206 0.778391 -0.353451 
-0.759815 0.447214 -0.777591 
-0.424141 -0.839643 -0.353451 
0.28276 -0.839643 -0.474204 
0.458605 0.447214 -0.985722 
-0.702962 -0.259464 -0.669586 
-0.114379 0.740536 -0.669586 
-0.168381 -0.618034 -0.985722 
0.440828 -0.259464 -0.864969 
-0.168381 0.0991064 -0.985722 
3 2 0 1 
3 2 3 0 
3 0 4 1 
3 1 3 2 
3 0 3 5 
3 1 4 6 
3 4 0 6 
3 3 1 7 
3 3 8 5 
3 5 8 0 
3 6 9 1 
3 0 10 6 
3 1 11 7 
3 7 11 3 
3 8 3 12 
3 0 8 13 
3 1 9 14 
3 9 6 14 
3 6 10 15 
3 10 0 15 
3 11 1 16 
3 3 11 17 
3 3 18 12 
3 12 18 8 
3 8 15 13 
3 13 15 0 
3 14 16 1 
3 6 19 14 
3 15 20 6 
3 16 14 11 
3 11 18 17 
3 17 18 3 
3 8 18 21 
3 15 8 22 
3 14 19 23 
3 19 6 23 
3 6 20 23 
3 20 15 23 
3 11 14 24 
3 18 11 25 
3 18 26 21 
3 21 26 8 
3 8 26 22 
3 22 26 15 
3 23 27 14 
3 15 28 23 
3 14 29 24 
3 24 29 11 
3 11 29 25 
3 25 29 18 
3 26 18 30 
3 15 26 28 
3 14 27 29 
3 27 23 29 
3 23 28 26 
3 18 29 30 
3 30 29 26 
3 23 31 29 
3 26 31 23 
3 26 29 31 
