ply
format ascii 1.0
element vertex 32
property float32 x
property float32 y
property float32 z
element face 60
property list uint8 int32 vertex_indices
end_header
0.201774 0.381966 0.979432 
-0.429238 -0.0486327 0.979432 
0.201774 -0.295686 0.979432 
0.781406 -0.0486327 0.730026 
-0.403548 0.591372 0.758194 
-0.239594 -0.745356 0.730026 
0.670364 0.591372 0.536956 
0.508626 -0.745356 0.575884 
-0.921987 0.254644 0.480619 
0.099013 0.951367 0.480619 
-0.795067 -0.408628 0.536956 
1.03688 0.254644 0.0770708 
0.942559 -0.408628 0.178985 
-0.59551 0.872678 0.172336 
0.036873 -1.02666 0.178985 
-0.615135 -0.872678 0.0770708 
0.615135 0.872678 -0.0770708 
0.59551 -0.872678 -0.172336 
-0.942559 0.408628 -0.178985 
-1.03688 -0.254644 -0.0770708 
-0.036873 1.02666 -0.178985 
0.795067 0.408628 -0.536956 
0.921987 -0.254644 -0.480619 
-0.508626 0.745356 -0.575884 
-0.099013 -0.951367 -0.480619 
-0.670364 -0.591372 -0.536956 
0.239594 0.745356 -0.730026 
0.403548 -0.591372 -0.758194 
-0.781406 0.0486327 -0.730026 
0.429238 0.0486327 -0.979432 
-0.201774 0.295686 -0.979432 
-0.201774 -0.381966 -0.979432 
3 2 0 1 
3 2 3 0 
3 0 4 1 
3 1 5 2 
3 0 3 6 
3 3 2 7 
3 1 4 8 
3 4 0 9 
3 2 5 7 
3 5 1 10 
3 3 11 6 
3 6 9 0 
3 7 12 3 
3 4 13 8 
3 8 10 1 
3 9 13 4 
3 5 14 7 
3 10 15 5 
3 6 11 16 
3 11 3 12 
3 9 6 16 
3 12 7 17 
3 8 13 18 
3 10 8 19 
3 13 9 20 
3 7 14 17 
3 14 5 15 
3 15 10 19 
3 11 21 16 
3 12 22 11 
3 16 20 9 
3 17 22 12 
3 13 23 18 
3 18 19 8 
3 20 23 13 
3 14 24 17 
3 15 24 14 
3 19 25 15 
3 16 21 26 
3 21 11 22 
3 20 16 26 
3 22 17 27 
3 18 23 28 
3 19 18 28 
3 23 20 26 
3 17 24 27 
3 24 15 25 
3 25 19 28 
3 21 29 26 
3 22 29 21 
3 27 29 22 
3 23 30 28 
3 26 30 23 
3 24 31 27 
3 25 31 24 
3 28 31 25 
3 26 29 30 
3 29 27 31 
3 28 30 31 
3 29 31 30 
