ply
format ascii 1.0
element vertex 14
property float32 x
property float32 y
property float32 z
element face 24
property list uint8 int32 vertex_indices
end_header
0.316228 0.707107 0.948683 
-0.737865 -0.235702 0.948683 
0.316228 -0.353553 0.948683 
1.1595 -0.235702 0.316228 
-0.632456 0.707107 0.474342 
0.105409 -1.17851 0.316228 
0.790569 0.707107 0 
-1.1595 0.235702 -0.316228 
-0.105409 1.17851 -0.316228 
-0.790569 -0.707107 0 
0.737865 0.235702 -0.948683 
0.632456 -0.707107 -0.474342 
-0.316228 -0.707107 -0.948683 
-0.316228 0.353553 -0.948683 
3 2 0 1 
3 2 3 0 
3 0 4 1 
3 1 5 2 
3 0 3 6 
3 3 2 5 
3 1 4 7 
3 4 0 8 
3 5 1 9 
3 3 10 6 
3 6 8 0 
3 5 11 3 
3 4 8 7 
3 7 9 1 
3 9 12 5 
3 6 10 8 
3 10 3 11 
3 11 5 12 
3 7 8 13 
3 9 7 12 
3 10 13 8 
3 11 12 10 
3 13 12 7 
3 13 10 12 
