ply
format ascii 1.0
element vertex 8
property float32 x
property float32 y
property float32 z
element face 12
property list uint8 int32 vertex_indices
end_header
0.426401 1.41421 0.904534 
-1.13707 -0.942809 0.904534 
0.426401 -0.282843 0.904534 
1.42134 -0.942809 -0.301511 
-0.852803 0.565685 0.180907 
0.682242 0.565685 -0.54272 
-0.710669 0.471404 -1.50756 
-0.255841 -0.848528 -0.54272 
3 2 0 1 
3 2 3 0 
3 0 4 1 
3 1 3 2 
3 0 3 5 
3 1 4 6 
3 4 0 6 
3 3 1 7 
3 3 6 5 
3 5 6 0 
3 6 7 1 
3 7 6 3 
