ply
format ascii 1.0
element vertex 9
property float32 x
property float32 y
property float32 z
element face 14
property list uint8 int32 vertex_indices
end_header
0.413300 0.500000 0.952500
-0.568900 0.311700 0.952500
0.413300 -2.156000 0.952500
1.084200 0.311700 0.235200
-0.413300 2.156000 -0.952500
-1.122600 -0.111300 0.235200
0.938700 -0.111300 -0.659100
-0.831000 -0.450500 -0.659100
0.086400 -0.450500 -1.057200
3 2 0 1 
3 2 3 0 
3 0 4 1 
3 1 5 2 
3 0 3 4 
3 3 2 6 
3 1 4 5 
3 2 5 7 
3 3 6 4 
3 2 8 6 
3 4 7 5 
3 7 8 2 
3 4 6 8 
3 7 4 8 
