ply
format ascii 1.0
element vertex 20
property float32 x
property float32 y
property float32 z
element face 18
property list uint8 int32 vertex_indices
end_header
0.801500 0.500000 2.307800
-0.096700 0.939700 2.307800
-0.886500 0.326400 2.307800
0.801500 -7.790900 2.307800
2.126100 0.326400 1.261500
1.506300 0.939700 1.751100
-0.801500 7.790900 -2.307800
-1.666100 0.613300 1.751100
-2.148000 -0.113300 1.261500
2.467500 -0.113300 -0.341400
2.392800 0.613300 0.341400
-2.467500 0.113300 0.341400
-2.392800 -0.613300 -0.341400
1.666100 -0.613300 -1.751100
2.148000 0.113300 -1.261500
-2.126100 -0.326400 -1.261500
-1.506300 -0.939700 -1.751100
0.096700 -0.939700 -2.307800
0.886500 -0.326400 -2.307800
-0.801500 -0.500000 -2.307800
4 3 0 1 2 
4 0 3 4 5 
4 1 0 5 6 
4 2 1 6 7 
4 3 2 7 8 
4 4 3 9 10 
4 5 4 10 6 
4 7 6 11 8 
4 3 8 11 12 
4 9 3 13 14 
4 10 9 14 6 
4 11 6 15 12 
4 3 12 15 16 
4 13 3 17 18 
4 14 13 18 6 
4 15 6 19 16 
4 3 16 19 17 
4 18 17 19 6 
