ply
format ascii 1.0
element vertex 32
property float32 x
property float32 y
property float32 z
element face 60
property list uint8 int32 vertex_indices
end_header
0.000000 0.000000 1.070470
0.713640 0.000000 0.797880
-0.356820 0.618000 0.797880
-0.356820 -0.618000 0.797880
0.797880 0.618030 0.356820
0.797880 -0.618000 0.356820
-0.934170 0.381970 0.356820
0.136290 1.000000 0.356820
0.136290 -1.000000 0.356820
-0.934170 -0.381970 0.356820
0.934170 0.381970 -0.356820
0.934170 -0.381970 -0.356820
-0.797880 0.618000 -0.356820
-0.136290 1.000000 -0.356820
-0.136290 -1.000000 -0.356820
-0.797880 -0.618030 -0.356820
0.356820 0.618000 -0.797880
0.356820 -0.618000 -0.797880
-0.713640 0.000000 -0.797880
0.000000 0.000000 -1.070470
0.577351 0.999993 1.511517
-1.154680 0.000002 1.511490
0.577303 -0.999980 1.511497
1.868310 0.000015 0.356815
-0.934221 1.618015 0.356837
-0.934124 -1.618038 0.356829
0.934126 1.618041 -0.356830
0.934217 -1.618027 -0.356835
-1.868322 -0.000015 -0.356817
1.154709 0.000000 -1.511529
-0.577367 0.999973 -1.511563
-0.577355 -1.000000 -1.511528
3 0 1 20 
3 1 4 20 
3 4 7 20 
3 7 2 20 
3 2 0 20 
3 0 2 21 
3 2 6 21 
3 6 9 21 
3 9 3 21 
3 3 0 21 
3 0 3 22 
3 3 8 22 
3 8 5 22 
3 5 1 22 
3 1 0 22 
3 1 5 23 
3 5 11 23 
3 11 10 23 
3 10 4 23 
3 4 1 23 
3 2 7 24 
3 7 13 24 
3 13 12 24 
3 12 6 24 
3 6 2 24 
3 3 9 25 
3 9 15 25 
3 15 14 25 
3 14 8 25 
3 8 3 25 
3 4 10 26 
3 10 16 26 
3 16 13 26 
3 13 7 26 
3 7 4 26 
3 5 8 27 
3 8 14 27 
3 14 17 27 
3 17 11 27 
3 11 5 27 
3 6 12 28 
3 12 18 28 
3 18 15 28 
3 15 9 28 
3 9 6 28 
3 10 11 29 
3 11 17 29 
3 17 19 29 
3 19 16 29 
3 16 10 29 
3 12 13 30 
3 13 16 30 
3 16 19 30 
3 19 18 30 
3 18 12 30 
3 14 15 31 
3 15 18 31 
3 18 19 31 
3 19 17 31 
3 17 14 31 
