ply
format ascii 1.0
element vertex 62
property float32 x
property float32 y
property float32 z
element face 60
property list uint8 int32 vertex_indices
end_header
0.000000 0.000000 1.401263
0.934167 0.000000 1.044438
-0.467083 0.808973 1.044438
-0.467083 -0.808973 1.044438
1.044438 0.809012 0.467083
1.044438 -0.808973 0.467083
-1.222844 0.500005 0.467083
0.178406 1.309017 0.467083
0.178406 -1.309017 0.467083
-1.222844 -0.500005 0.467083
1.222844 0.500005 -0.467083
1.222844 -0.500005 -0.467083
-1.044438 0.808973 -0.467083
-0.178406 1.309017 -0.467083
-0.178406 -1.309017 -0.467083
-1.044438 -0.809012 -0.467083
0.467083 0.808973 -1.044438
0.467083 -0.808973 -1.044438
-0.934167 0.000000 -1.044438
0.000000 0.000000 -1.401263
0.356820 0.000000 0.934175
0.755760 0.309015 0.577350
0.467085 0.809015 0.356820
-0.178410 0.309000 0.934175
-0.645495 0.499985 0.577350
-0.934170 0.000000 0.356820
-0.178410 -0.309000 0.934175
-0.110265 -0.809000 0.577350
0.755760 -0.309000 0.577350
0.866025 -0.499985 0.000000
-0.110265 0.809000 0.577350
0.000000 1.000000 0.000000
-0.645495 -0.499985 0.577350
-0.866025 -0.500000 0.000000
0.866025 0.500000 0.000000
0.645495 0.499985 -0.577350
0.467085 -0.809000 0.356820
0.000000 -1.000000 0.000000
0.110265 -0.809000 -0.577350
-0.866025 0.499985 0.000000
-0.755760 0.309000 -0.577350
0.934170 0.000000 -0.356820
0.645495 -0.499985 -0.577350
0.178410 -0.309000 -0.934175
-0.467085 0.809000 -0.356820
0.110265 0.809000 -0.577350
0.178410 0.309000 -0.934175
-0.467085 -0.809015 -0.356820
-0.755760 -0.309015 -0.577350
-0.356820 0.000000 -0.934175
0.178410 0.309012 0.467087
-0.356821 0.000000 0.467087
0.178410 -0.309008 0.467087
0.577349 0.000004 0.110264
-0.288675 0.499991 0.110264
-0.288675 -0.499995 0.110264
0.288675 0.499995 -0.110264
0.288675 -0.499991 -0.110264
-0.577349 -0.000004 -0.110264
0.356821 0.000000 -0.467087
-0.178410 0.309008 -0.467087
-0.178410 -0.309012 -0.467087
4 50 20 1 21 
4 50 21 4 22 
4 50 22 7 30 
4 50 30 2 23 
4 50 23 0 20 
4 51 23 2 24 
4 51 24 6 25 
4 51 25 9 32 
4 51 32 3 26 
4 51 26 0 23 
4 52 26 3 27 
4 52 27 8 36 
4 52 36 5 28 
4 52 28 1 20 
4 52 20 0 26 
4 53 28 5 29 
4 53 29 11 41 
4 53 41 10 34 
4 53 34 4 21 
4 53 21 1 28 
4 54 30 7 31 
4 54 31 13 44 
4 54 44 12 39 
4 54 39 6 24 
4 54 24 2 30 
4 55 32 9 33 
4 55 33 15 47 
4 55 47 14 37 
4 55 37 8 27 
4 55 27 3 32 
4 56 34 10 35 
4 56 35 16 45 
4 56 45 13 31 
4 56 31 7 22 
4 56 22 4 34 
4 57 36 8 37 
4 57 37 14 38 
4 57 38 17 42 
4 57 42 11 29 
4 57 29 5 36 
4 58 39 12 40 
4 58 40 18 48 
4 58 48 15 33 
4 58 33 9 25 
4 58 25 6 39 
4 59 41 11 42 
4 59 42 17 43 
4 59 43 19 46 
4 59 46 16 35 
4 59 35 10 41 
4 60 44 13 45 
4 60 45 16 46 
4 60 46 19 49 
4 60 49 18 40 
4 60 40 12 44 
4 61 47 15 48 
4 61 48 18 49 
4 61 49 19 43 
4 61 43 17 38 
4 61 38 14 47 
