ply
format ascii 1.0
element vertex 140
property float32 x
property float32 y
property float32 z
element face 72
property list uint8 int32 vertex_indices
end_header
0.000000 0.000000 1.006000
0.670670 0.000000 0.749830
-0.335330 0.580810 0.749830
-0.335330 -0.580810 0.749830
0.749830 0.580810 0.335330
0.749830 -0.580810 0.335330
-0.877910 0.358960 0.335330
0.128080 0.939770 0.335330
0.128090 -0.939770 0.335340
-0.877910 -0.358960 0.335330
0.877910 0.358960 -0.335330
0.877910 -0.358960 -0.335330
-0.749830 0.580810 -0.335330
-0.128090 0.939770 -0.335340
-0.128080 -0.939770 -0.335330
-0.749830 -0.580810 -0.335330
0.335330 0.580810 -0.749830
0.335330 -0.580810 -0.749830
-0.670670 0.000000 -0.749830
0.000000 0.000000 -1.006000
0.026470 0.829180 0.568560
-0.146340 0.437510 0.893690
0.258840 0.092030 0.967490
0.682050 0.270180 0.687980
0.538440 0.725760 0.441420
-0.731330 -0.391670 0.568560
-0.305730 -0.345480 0.893680
-0.209120 0.178140 0.967490
-0.575010 0.455580 0.687980
-0.897750 0.103420 0.441420
0.704860 -0.437510 0.568560
0.452070 -0.092020 0.893680
-0.049720 -0.270170 0.967490
-0.107050 -0.725760 0.687980
0.359310 -0.829180 0.441430
0.924140 0.391670 -0.063780
0.823670 0.345490 0.462290
0.800860 -0.178140 0.581720
0.887240 -0.455580 0.129450
0.963430 -0.103420 -0.269480
-0.801270 0.604490 -0.063780
-0.711040 0.540570 0.462290
-0.246150 0.782630 0.581720
-0.049070 0.996160 0.129450
-0.392150 0.886060 -0.269490
-0.122870 -0.996160 -0.063780
-0.112630 -0.886060 0.462300
-0.554710 -0.604490 0.581720
-0.838170 -0.540570 0.129450
-0.571280 -0.782640 -0.269480
0.049060 0.996160 -0.129460
0.392140 0.886060 0.269480
0.801270 0.604490 0.063780
0.711040 0.540570 -0.462290
0.246150 0.782630 -0.581720
0.554710 -0.604490 -0.581720
0.838170 -0.540570 -0.129450
0.571280 -0.782630 0.269490
0.122880 -0.996160 0.063780
0.112640 -0.886060 -0.462290
-0.887240 -0.455590 -0.129450
-0.963420 -0.103430 0.269480
-0.924140 0.391660 0.063780
-0.823670 0.345480 -0.462290
-0.800860 -0.178150 -0.581710
0.209120 0.178140 -0.967490
0.575000 0.455590 -0.687980
0.897750 0.103430 -0.441420
0.731330 -0.391660 -0.568560
0.305730 -0.345490 -0.893680
-0.258840 0.092020 -0.967490
-0.682060 0.270170 -0.687980
-0.538450 0.725760 -0.441430
-0.026470 0.829180 -0.568560
0.146340 0.437510 -0.893690
0.049720 -0.270170 -0.967490
0.107050 -0.725760 -0.687980
-0.359310 -0.829190 -0.441420
-0.704860 -0.437520 -0.568560
-0.452070 -0.092030 -0.893680
0.095590 0.498540 0.865240
0.290640 0.332060 0.900880
0.494560 0.417730 0.766310
0.425540 0.637170 0.647500
0.178960 0.687110 0.708640
-0.479540 -0.166480 0.865240
-0.432890 0.085680 0.900880
-0.609050 0.219430 0.766310
-0.764570 0.049940 0.647490
-0.684530 -0.188570 0.708640
0.383950 -0.332050 0.865240
0.142250 -0.417730 0.900880
0.114490 -0.637160 0.766310
0.339040 -0.687100 0.647500
0.505580 -0.498530 0.708640
0.934260 0.166490 0.325210
0.923240 -0.085670 0.382880
0.964830 -0.219430 0.165140
1.001540 -0.049940 -0.027100
0.982650 0.188570 0.071830
-0.611310 0.725840 0.325210
-0.387430 0.842390 0.382880
-0.292380 0.945280 0.165140
-0.457530 0.892330 -0.027100
-0.654640 0.756710 0.071830
-0.322950 -0.892330 0.325220
-0.535820 -0.756710 0.382880
-0.672450 -0.725850 0.165140
-0.544020 -0.842390 -0.027100
-0.328020 -0.945280 0.071830
0.457520 0.892330 0.027100
0.654630 0.756710 -0.071830
0.611310 0.725850 -0.325220
0.387420 0.842390 -0.382880
0.292380 0.945280 -0.165140
0.672460 -0.725840 -0.165140
0.544030 -0.842390 0.027100
0.328020 -0.945280 -0.071830
0.322950 -0.892330 -0.325220
0.535820 -0.756710 -0.382880
-1.001540 -0.049950 0.027100
-0.982650 0.188560 -0.071830
-0.934260 0.166480 -0.325210
-0.923240 -0.085680 -0.382880
-0.964830 -0.219440 -0.165140
0.609050 0.219430 -0.766310
0.764570 0.049940 -0.647500
0.684530 -0.188570 -0.708640
0.479540 -0.166480 -0.865240
0.432890 0.085680 -0.900880
-0.494560 0.417730 -0.766310
-0.425540 0.637160 -0.647500
-0.178960 0.687100 -0.708640
-0.095590 0.498530 -0.865240
-0.290640 0.332050 -0.900880
-0.114490 -0.637170 -0.766310
-0.339030 -0.687110 -0.647500
-0.505570 -0.498540 -0.708640
-0.383950 -0.332060 -0.865240
-0.142250 -0.417730 -0.900880
6 21 80 84 20 42 2 
6 22 81 80 21 27 0 
6 23 82 81 22 31 1 
6 24 83 82 23 36 4 
6 20 84 83 24 51 7 
6 26 85 89 25 47 3 
6 27 86 85 26 32 0 
6 28 87 86 27 21 2 
6 29 88 87 28 41 6 
6 25 89 88 29 61 9 
6 31 90 94 30 37 1 
6 32 91 90 31 22 0 
6 33 92 91 32 26 3 
6 34 93 92 33 46 8 
6 30 94 93 34 57 5 
6 36 95 99 35 52 4 
6 37 96 95 36 23 1 
6 38 97 96 37 30 5 
6 39 98 97 38 56 11 
6 35 99 98 39 67 10 
6 41 100 104 40 62 6 
6 42 101 100 41 28 2 
6 43 102 101 42 20 7 
6 44 103 102 43 50 13 
6 40 104 103 44 72 12 
6 46 105 109 45 58 8 
6 47 106 105 46 33 3 
6 48 107 106 47 25 9 
6 49 108 107 48 60 15 
6 45 109 108 49 77 14 
6 51 110 114 50 43 7 
6 52 111 110 51 24 4 
6 53 112 111 52 35 10 
6 54 113 112 53 66 16 
6 50 114 113 54 73 13 
6 56 115 119 55 68 11 
6 57 116 115 56 38 5 
6 58 117 116 57 34 8 
6 59 118 117 58 45 14 
6 55 119 118 59 76 17 
6 61 120 124 60 48 9 
6 62 121 120 61 29 6 
6 63 122 121 62 40 12 
6 64 123 122 63 71 18 
6 60 124 123 64 78 15 
6 66 125 129 65 74 16 
6 67 126 125 66 53 10 
6 68 127 126 67 39 11 
6 69 128 127 68 55 17 
6 65 129 128 69 75 19 
6 71 130 134 70 79 18 
6 72 131 130 71 63 12 
6 73 132 131 72 44 13 
6 74 133 132 73 54 16 
6 70 134 133 74 65 19 
6 76 135 139 75 69 17 
6 77 136 135 76 59 14 
6 78 137 136 77 49 15 
6 79 138 137 78 64 18 
6 75 139 138 79 70 19 
5 81 82 83 84 80 
5 86 87 88 89 85 
5 91 92 93 94 90 
5 96 97 98 99 95 
5 101 102 103 104 100 
5 106 107 108 109 105 
5 111 112 113 114 110 
5 116 117 118 119 115 
5 121 122 123 124 120 
5 126 127 128 129 125 
5 131 132 133 134 130 
5 136 137 138 139 135 
