ply
format ascii 1.0
element vertex 36
property float32 x
property float32 y
property float32 z
element face 66
property list uint8 int32 vertex_indices
end_header
-4.000000 0.000000 -1.306563
-4.000000 0.923880 -0.923880
-4.000000 0.000000 1.306563
-4.000000 -0.923880 0.923880
-3.000000 0.923880 -0.923880
-3.000000 1.306563 -0.000000
-3.000000 -0.923880 0.923880
-3.000000 -1.306563 0.000000
-2.000000 1.306563 -0.000000
-2.000000 0.923880 0.923880
-2.000000 -1.306563 0.000000
-2.000000 -0.923880 -0.923880
-1.000000 0.923880 0.923880
-1.000000 0.000000 1.306563
-1.000000 -0.923880 -0.923880
-1.000000 -0.000000 -1.306563
-0.000000 0.000000 1.306563
-0.000000 -0.923880 0.923880
0.000000 -0.000000 -1.306563
0.000000 0.923880 -0.923880
1.000000 -0.923880 0.923880
1.000000 -1.306563 0.000000
1.000000 0.923880 -0.923880
1.000000 1.306563 -0.000000
2.000000 -1.306563 0.000000
2.000000 -0.923880 -0.923880
2.000000 1.306563 -0.000000
2.000000 0.923880 0.923880
3.000000 -0.923880 -0.923880
3.000000 -0.000000 -1.306563
3.000000 0.923880 0.923880
3.000000 0.000000 1.306563
4.000000 -0.000000 -1.306563
4.000000 0.923880 -0.923880
4.000000 0.000000 1.306563
4.000000 -0.923880 0.923880
3 4 0 1 
3 4 1 5 
3 5 1 2 
3 5 2 6 
3 6 2 3 
3 6 3 7 
3 7 3 4 
3 3 0 4 
3 8 4 5 
3 8 5 9 
3 9 5 6 
3 9 6 10 
3 10 6 7 
3 10 7 11 
3 11 7 8 
3 7 4 8 
3 12 8 9 
3 12 9 13 
3 13 9 10 
3 13 10 14 
3 14 10 11 
3 14 11 15 
3 15 11 12 
3 11 8 12 
3 16 12 13 
3 16 13 17 
3 17 13 14 
3 17 14 18 
3 18 14 15 
3 18 15 19 
3 19 15 16 
3 15 12 16 
3 20 16 17 
3 20 17 21 
3 21 17 18 
3 21 18 22 
3 22 18 19 
3 22 19 23 
3 23 19 20 
3 19 16 20 
3 24 20 21 
3 24 21 25 
3 25 21 22 
3 25 22 26 
3 26 22 23 
3 26 23 27 
3 27 23 24 
3 23 20 24 
3 28 24 25 
3 28 25 29 
3 29 25 26 
3 29 26 30 
3 30 26 27 
3 30 27 31 
3 31 27 28 
3 27 24 28 
3 32 28 29 
3 32 29 33 
3 33 29 30 
3 33 30 34 
3 34 30 31 
3 34 31 35 
3 35 31 32 
3 31 28 32 
4 3 2 1 0 
4 32 33 34 35 
