ply
format ascii 1.0
element vertex 16
property float32 x
property float32 y
property float32 z
element face 16
property list uint8 int32 vertex_indices
end_header
0.707000 0.707000 0.707000
-0.707000 0.707000 0.707000
-0.707000 -0.707000 0.707000
0.707000 -0.707000 0.707000
0.707000 -0.707000 -0.707000
0.707000 0.707000 -0.707000
-0.707000 0.707000 -0.707000
-0.707000 -0.707000 -0.707000
1.414000 1.414000 1.414000
-1.414000 1.414000 1.414000
-1.414000 -1.414000 1.414000
1.414000 -1.414000 1.414000
1.414000 -1.414000 -1.414000
1.414000 1.414000 -1.414000
-1.414000 1.414000 -1.414000
-1.414000 -1.414000 -1.414000
4 0 1 6 5 
4 1 2 7 6 
4 2 3 4 7 
4 3 0 5 4 
4 8 13 14 9 
4 9 14 15 10 
4 10 15 12 11 
4 11 12 13 8 
4 1 0 8 9 
4 2 1 9 10 
4 3 2 10 11 
4 0 3 11 8 
4 4 5 13 12 
4 5 6 14 13 
4 6 7 15 14 
4 7 4 12 15 
