ply
format ascii 1.0
element vertex 12
property float32 x
property float32 y
property float32 z
element face 18
property list uint8 int32 vertex_indices
end_header
0.000000 0.000000 1.000000
0.000000 0.000000 -1.000000
0.000000 1.000000 0.000000
0.000000 -1.000000 0.000000
1.000000 0.000000 0.000000
-1.000000 0.000000 0.000000
0.000000 0.000000 2.000000
0.000000 0.000000 -2.000000
0.000000 2.000000 0.000000
0.000000 -2.000000 0.000000
2.000000 0.000000 0.000000
-2.000000 0.000000 0.000000
3 0 4 3 
3 0 3 5 
3 0 5 2 
3 1 4 2 
3 1 3 4 
3 1 2 5 
3 6 9 10 
3 6 11 9 
3 6 8 11 
3 7 8 10 
3 7 10 9 
3 7 11 8 
4 0 2 8 6 
4 4 0 6 10 
4 2 4 10 8 
4 1 5 11 7 
4 3 1 7 9 
4 5 3 9 11 
