ply
format ascii 1.0
comment VCGLIB generated
element vertex 36
property float x
property float y
property float z
element face 72
property list uchar int vertex_indices
end_header
-37.6104 4.33013 -31.3467 
-40.1104 7.45058e-007 -31.3467 
-42.6104 1.11759e-006 -27.0165 
-31.3604 -6.49519 -27.0165 
-30.1104 0 -31.3467 
-27.6104 9.61481e-016 -27.0165 
-31.3604 6.49519 -27.0165 
-38.8604 6.49519 -27.0165 
-38.8604 -6.49519 -27.0165 
-22.6104 9.61481e-016 -27.0165 
-28.8604 10.8253 -27.0165 
-50.1104 2.23517e-006 -31.3467 
-41.3604 10.8253 -27.0165 
-42.6104 12.9904 -31.3467 
-47.6104 1.86265e-006 -27.0165 
-41.3604 -10.8253 -27.0165 
-28.8604 -10.8253 -27.0165 
-27.6104 12.9904 -31.3467 
-47.6104 1.86265e-006 -35.6768 
-27.6104 -12.9904 -31.3467 
-28.8604 -10.8253 -35.6768 
-42.6104 -12.9904 -31.3467 
-41.3604 -10.8253 -35.6768 
-22.6104 -9.61481e-016 -35.6768 
-28.8604 10.8253 -35.6768 
-20.1104 -1.65436e-022 -31.3467 
-41.3604 10.8253 -35.6768 
-42.6104 1.11759e-006 -35.6768 
-27.6104 -9.61481e-016 -35.6768 
-31.3604 6.49519 -35.6768 
-38.8604 6.49519 -35.6768 
-38.8604 -6.49519 -35.6768 
-32.6104 -4.33013 -31.3467 
-37.6104 -4.33013 -31.3467 
-31.3604 -6.49519 -35.6768 
-32.6104 4.33013 -31.3467 
3 0 35 7 
3 7 35 6 
3 1 0 2 
3 2 0 7 
3 33 1 8 
3 8 1 2 
3 32 33 3 
3 3 33 8 
3 4 32 5 
3 5 32 3 
3 35 4 6 
3 6 4 5 
3 7 6 12 
3 12 6 10 
3 2 7 14 
3 14 7 12 
3 8 2 15 
3 15 2 14 
3 3 8 16 
3 16 8 15 
3 5 3 9 
3 9 3 16 
3 6 5 10 
3 10 5 9 
3 12 10 13 
3 13 10 17 
3 14 12 11 
3 11 12 13 
3 15 14 21 
3 21 14 11 
3 16 15 19 
3 19 15 21 
3 9 16 25 
3 25 16 19 
3 10 9 17 
3 17 9 25 
3 13 17 26 
3 26 17 24 
3 11 13 18 
3 18 13 26 
3 21 11 22 
3 22 11 18 
3 19 21 20 
3 20 21 22 
3 25 19 23 
3 23 19 20 
3 17 25 24 
3 24 25 23 
3 26 24 30 
3 30 24 29 
3 18 26 27 
3 27 26 30 
3 22 18 31 
3 31 18 27 
3 20 22 34 
3 34 22 31 
3 23 20 28 
3 28 20 34 
3 24 23 29 
3 29 23 28 
3 30 29 0 
3 0 29 35 
3 27 30 1 
3 1 30 0 
3 31 27 33 
3 33 27 1 
3 34 31 32 
3 32 31 33 
3 28 34 4 
3 4 34 32 
3 29 28 35 
3 35 28 4 
