ply
format ascii 1.0
element vertex 44
property float32 x
property float32 y
property float32 z
element face 46
property list uint8 int32 vertex_indices
end_header
2.598076 0.500000 1.000000
1.732051 1.000000 1.000000
0.866025 0.500000 1.000000
0.866025 -0.500000 1.000000
1.732051 -1.000000 1.000000
2.598076 -0.500000 1.000000
2.598076 0.500000 -1.000000
1.732051 1.000000 -1.000000
0.866025 0.500000 -1.000000
0.866025 -0.500000 -1.000000
1.732051 -1.000000 -1.000000
2.598076 -0.500000 -1.000000
3.464102 1.000000 1.000000
1.732051 2.000000 1.000000
0.000000 1.000000 1.000000
-0.000000 -1.000000 1.000000
1.732051 -2.000000 1.000000
3.464102 -1.000000 1.000000
3.464102 1.000000 -1.000000
1.732051 2.000000 -1.000000
0.000000 1.000000 -1.000000
-0.000000 -1.000000 -1.000000
1.732051 -2.000000 -1.000000
3.464102 -1.000000 -1.000000
-0.866025 1.000000 -0.500000
-1.732051 1.000000 -1.000000
-2.598076 1.000000 -0.500000
-2.598076 1.000000 0.500000
-1.732051 1.000000 1.000000
-0.866025 1.000000 0.500000
-0.866025 -1.000000 -0.500000
-1.732051 -1.000000 -1.000000
-2.598076 -1.000000 -0.500000
-2.598076 -1.000000 0.500000
-1.732051 -1.000000 1.000000
-0.866025 -1.000000 0.500000
-1.732051 1.000000 -2.000000
-3.464102 1.000000 -1.000000
-3.464102 1.000000 1.000000
-1.732051 1.000000 2.000000
-1.732051 -1.000000 -2.000000
-3.464102 -1.000000 -1.000000
-3.464102 -1.000000 1.000000
-1.732051 -1.000000 2.000000
4 12 13 1 0 
4 13 14 2 1 
4 14 15 3 2 
4 15 16 4 3 
4 16 17 5 4 
4 17 12 0 5 
4 6 7 19 18 
4 7 8 20 19 
4 8 9 21 20 
4 9 10 22 21 
4 10 11 23 22 
4 11 6 18 23 
4 0 1 7 6 
4 1 2 8 7 
4 2 3 9 8 
4 3 4 10 9 
4 4 5 11 10 
4 5 0 6 11 
4 13 12 18 19 
4 14 13 19 20 
4 16 15 21 22 
4 17 16 22 23 
4 12 17 23 18 
4 20 36 25 24 
4 36 37 26 25 
4 37 38 27 26 
4 38 39 28 27 
4 39 14 29 28 
4 14 20 24 29 
4 30 31 40 21 
4 31 32 41 40 
4 32 33 42 41 
4 33 34 43 42 
4 34 35 15 43 
4 35 30 21 15 
4 24 25 31 30 
4 25 26 32 31 
4 26 27 33 32 
4 27 28 34 33 
4 28 29 35 34 
4 29 24 30 35 
4 36 20 21 40 
4 37 36 40 41 
4 38 37 41 42 
4 39 38 42 43 
4 14 39 43 15 
