ply
format ascii 1.0
element vertex 8
property float32 x
property float32 y
property float32 z
element face 12
property list uint8 int32 vertex_indices
end_header
1.000000 1.000000 1.000000
-1.000000 1.000000 1.000000
-1.000000 -1.000000 1.000000
1.000000 -1.000000 1.000000
1.000000 1.000000 -1.000000
-1.000000 1.000000 -1.000000
-1.000000 -1.000000 -1.000000
1.000000 -1.000000 -1.000000
3 0 1 3 
3 1 2 3 
3 0 4 1 
3 1 4 5 
3 0 3 4 
3 4 3 7 
3 6 2 1 
3 6 1 5 
3 3 2 6 
3 7 3 6 
3 7 6 4 
3 4 6 5 
