ply
format ascii 1.0
element vertex 42
property float32 x
property float32 y
property float32 z
element face 80
property list uint8 int32 vertex_indices
end_header
-1.32455e-007 0 32.6902 
29.5118 -1.30744e-015 18.2393 
-26.4469 -16.3451 -10.1018 
-32.6902 1.32455e-007 0 
0 -18.2393 29.5118 
-16.3451 -10.1018 26.4469 
-16.3451 10.1018 26.4469 
0 18.2393 -29.5118 
-29.5118 1.30744e-015 -18.2393 
-10.1018 -26.4469 16.3451 
-18.2393 -29.5118 -2.47814e-015 
10.1018 -26.4469 -16.3451 
-18.2393 29.5118 2.47814e-015 
10.1018 26.4469 -16.3451 
0 32.6902 1.32455e-007 
18.2393 -29.5118 -2.47814e-015 
0 -32.6902 1.32455e-007 
0 -18.2393 -29.5118 
-10.1018 -26.4469 -16.3451 
-10.1018 26.4469 -16.3451 
-16.3451 10.1018 -26.4469 
-16.3451 -10.1018 -26.4469 
-26.4469 16.3451 10.1018 
-10.1018 26.4469 16.3451 
-26.4469 -16.3451 10.1018 
-29.5118 -1.30744e-015 18.2393 
-26.4469 16.3451 -10.1018 
10.1018 26.4469 16.3451 
26.4469 16.3451 10.1018 
18.2393 29.5118 2.47814e-015 
10.1018 -26.4469 16.3451 
16.3451 -10.1018 26.4469 
26.4469 -16.3451 10.1018 
0 18.2393 29.5118 
16.3451 10.1018 26.4469 
16.3451 -10.1018 -26.4469 
16.3451 10.1018 -26.4469 
1.32455e-007 0 -32.6902 
32.6902 1.32455e-007 0 
26.4469 16.3451 -10.1018 
26.4469 -16.3451 -10.1018 
29.5118 1.30744e-015 -18.2393 
3 1 32 38 
3 41 39 38 
3 41 35 36 
3 41 36 39 
3 41 40 35 
3 4 31 0 
3 15 32 30 
3 1 28 34 
3 8 2 3 
3 25 22 3 
3 4 0 5 
3 25 24 5 
3 33 23 6 
3 7 37 20 
3 8 26 20 
3 8 21 2 
3 4 9 30 
3 33 27 23 
3 7 19 13 
3 17 11 18 
3 18 16 10 
3 16 11 15 
3 18 11 16 
3 13 14 29 
3 14 19 12 
3 13 19 14 
3 23 14 12 
3 14 27 29 
3 23 27 14 
3 30 16 15 
3 16 9 10 
3 30 9 16 
3 2 18 10 
3 18 21 17 
3 2 21 18 
3 20 19 7 
3 19 26 12 
3 20 26 19 
3 20 21 8 
3 21 37 17 
3 20 37 21 
3 6 22 25 
3 22 23 12 
3 6 23 22 
3 5 9 4 
3 9 24 10 
3 5 24 9 
3 5 6 25 
3 6 0 33 
3 5 0 6 
3 3 26 8 
3 26 22 12 
3 3 22 26 
3 3 24 25 
3 24 2 10 
3 3 2 24 
3 34 27 33 
3 27 28 29 
3 34 28 27 
3 30 31 4 
3 31 32 1 
3 30 32 31 
3 0 34 33 
3 34 31 1 
3 0 31 34 
3 35 11 17 
3 11 40 15 
3 35 40 11 
3 39 13 29 
3 13 36 7 
3 39 36 13 
3 36 37 7 
3 37 35 17 
3 36 35 37 
3 38 28 1 
3 28 39 29 
3 38 39 28 
3 38 40 41 
3 40 32 15 
3 38 32 40 

