ply
format ascii 1.0
element vertex 98
property float32 x
property float32 y
property float32 z
element face 192
property list uint8 int32 vertex_indices
end_header
2.5 0 -4.33013 
4.33013 0 -2.5 
3.23223 3.53553 -5.59839 
5.59839 3.53553 -3.23223 
0 0 -5 
0 3.53553 -6.46447 
-2.5 0 -4.33013 
-3.23223 3.53553 -5.59839 
-4.33013 0 -2.5 
-5.59839 3.53553 -3.23223 
-5 0 0 
-6.46447 3.53553 0 
-4.33013 0 2.5 
-5.59839 3.53553 3.23223 
-2.5 0 4.33013 
-3.23223 3.53553 5.59839 
0 0 5 
0 3.53553 6.46447 
2.5 0 4.33013 
3.23223 3.53553 5.59839 
5 0 0 
4.33013 0 2.5 
6.46447 3.53553 0 
5.59839 3.53553 3.23223 
5 5 -8.66025 
8.66025 5 -5 
0 5 -10 
-5 5 -8.66025 
-8.66025 5 -5 
-10 5 0 
-8.66025 5 5 
-5 5 8.66025 
0 5 10 
5 5 8.66025 
10 5 0 
8.66025 5 5 
6.76777 3.53553 -11.7221 
11.7221 3.53553 -6.76777 
0 3.53553 -13.5355 
-6.76777 3.53553 -11.7221 
-11.7221 3.53553 -6.76777 
-13.5355 3.53553 0 
-11.7221 3.53553 6.76777 
-6.76777 3.53553 11.7221 
0 3.53553 13.5355 
6.76777 3.53553 11.7221 
13.5355 3.53553 0 
11.7221 3.53553 6.76777 
7.5 0 -12.9904 
12.9904 0 -7.5 
0 0 -15 
-7.5 0 -12.9904 
-12.9904 0 -7.5 
-15 0 0 
-12.9904 0 7.5 
-7.5 0 12.9904 
0 0 15 
7.5 0 12.9904 
15 0 0 
12.9904 0 7.5 
6.76777 -3.53553 -11.7221 
11.7221 -3.53553 -6.76777 
0 -3.53553 -13.5355 
-6.76777 -3.53553 -11.7221 
-11.7221 -3.53553 -6.76777 
-13.5355 -3.53553 0 
-11.7221 -3.53553 6.76777 
-6.76777 -3.53553 11.7221 
0 -3.53553 13.5355 
6.76777 -3.53553 11.7221 
13.5355 -3.53553 0 
11.7221 -3.53553 6.76777 
5 -5 -8.66025 
8.66025 -5 -5 
0 -5 -10 
-5 -5 -8.66025 
-8.66025 -5 -5 
-10 -5 0 
-8.66025 -5 5 
-5 -5 8.66025 
0 -5 10 
5 -5 8.66025 
10 -5 0 
8.66025 -5 5 
3.23223 -3.53553 -5.59839 
5.59839 -3.53553 -3.23223 
0 -3.53553 -6.46447 
-3.23223 -3.53553 -5.59839 
-5.59839 -3.53553 -3.23223 
-6.46447 -3.53553 0 
-5.59839 -3.53553 3.23223 
-3.23223 -3.53553 5.59839 
0 -3.53553 6.46447 
3.23223 -3.53553 5.59839 
6.46447 -3.53553 0 
5.59839 -3.53553 3.23223 
5 1.49012e-07 8.66025 
8.66025 1.49012e-07 5 
3 0 1 2 
3 2 1 3 
3 4 0 5 
3 5 0 2 
3 6 4 7 
3 7 4 5 
3 8 6 9 
3 9 6 7 
3 10 8 11 
3 11 8 9 
3 12 10 13 
3 13 10 11 
3 14 12 15 
3 15 12 13 
3 16 14 17 
3 17 14 15 
3 18 16 19 
3 19 16 17 
3 20 21 22 
3 22 21 23 
3 1 20 3 
3 3 20 22 
3 2 3 24 
3 24 3 25 
3 5 2 26 
3 26 2 24 
3 7 5 27 
3 27 5 26 
3 9 7 28 
3 28 7 27 
3 11 9 29 
3 29 9 28 
3 13 11 30 
3 30 11 29 
3 15 13 31 
3 31 13 30 
3 17 15 32 
3 32 15 31 
3 19 17 33 
3 33 17 32 
3 22 23 34 
3 34 23 35 
3 3 22 25 
3 25 22 34 
3 24 25 36 
3 36 25 37 
3 26 24 38 
3 38 24 36 
3 27 26 39 
3 39 26 38 
3 28 27 40 
3 40 27 39 
3 29 28 41 
3 41 28 40 
3 30 29 42 
3 42 29 41 
3 31 30 43 
3 43 30 42 
3 32 31 44 
3 44 31 43 
3 33 32 45 
3 45 32 44 
3 34 35 46 
3 46 35 47 
3 25 34 37 
3 37 34 46 
3 36 37 48 
3 48 37 49 
3 38 36 50 
3 50 36 48 
3 39 38 51 
3 51 38 50 
3 40 39 52 
3 52 39 51 
3 41 40 53 
3 53 40 52 
3 42 41 54 
3 54 41 53 
3 43 42 55 
3 55 42 54 
3 44 43 56 
3 56 43 55 
3 45 44 57 
3 57 44 56 
3 46 47 58 
3 58 47 59 
3 37 46 49 
3 49 46 58 
3 48 49 60 
3 60 49 61 
3 50 48 62 
3 62 48 60 
3 51 50 63 
3 63 50 62 
3 52 51 64 
3 64 51 63 
3 53 52 65 
3 65 52 64 
3 54 53 66 
3 66 53 65 
3 55 54 67 
3 67 54 66 
3 56 55 68 
3 68 55 67 
3 57 56 69 
3 69 56 68 
3 58 59 70 
3 70 59 71 
3 49 58 61 
3 61 58 70 
3 60 61 72 
3 72 61 73 
3 62 60 74 
3 74 60 72 
3 63 62 75 
3 75 62 74 
3 64 63 76 
3 76 63 75 
3 65 64 77 
3 77 64 76 
3 66 65 78 
3 78 65 77 
3 67 66 79 
3 79 66 78 
3 68 67 80 
3 80 67 79 
3 69 68 81 
3 81 68 80 
3 70 71 82 
3 82 71 83 
3 61 70 73 
3 73 70 82 
3 72 73 84 
3 84 73 85 
3 74 72 86 
3 86 72 84 
3 75 74 87 
3 87 74 86 
3 76 75 88 
3 88 75 87 
3 77 76 89 
3 89 76 88 
3 78 77 90 
3 90 77 89 
3 79 78 91 
3 91 78 90 
3 80 79 92 
3 92 79 91 
3 81 80 93 
3 93 80 92 
3 82 83 94 
3 94 83 95 
3 73 82 85 
3 85 82 94 
3 84 85 0 
3 0 85 1 
3 86 84 4 
3 4 84 0 
3 87 86 6 
3 6 86 4 
3 88 87 8 
3 8 87 6 
3 89 88 10 
3 10 88 8 
3 90 89 12 
3 12 89 10 
3 91 90 14 
3 14 90 12 
3 92 91 16 
3 16 91 14 
3 93 92 18 
3 18 92 16 
3 94 95 20 
3 20 95 21 
3 85 94 1 
3 1 94 20 
3 93 96 81 
3 71 97 83 
3 45 96 33 
3 19 33 96 
3 57 96 45 
3 69 96 57 
3 81 96 69 
3 18 96 93 
3 19 96 18 
3 23 97 35 
3 35 97 47 
3 47 97 59 
3 59 97 71 
3 97 95 83 
3 97 21 95 
3 23 21 97 

