ply
format ascii 1.0
element vertex 105
property float32 x
property float32 y
property float32 z
element face 206
property list uint8 int32 vertex_indices
end_header
12.2361 -18.8042 1.66288e-07 
7.76393 -17.3511 1.02772e-07 
10.9024 -17.3042 -5.55506 
6.91771 -15.8511 -3.52475 
7.76393 -12.6489 -1.02772e-07 
6.91771 -11.1489 -3.52475 
12.2361 -11.1958 -1.66288e-07 
10.9024 -9.69577 -5.55506 
15 -15 0 
13.3651 -13.5 -6.80986 
7.19218 -15.8042 -9.89919 
4.56352 -14.3511 -6.28115 
4.56352 -9.64886 -6.28115 
7.19218 -8.19577 -9.89919 
8.81678 -12 -12.1353 
1.91414 -14.3042 -12.0854 
1.21455 -12.8511 -7.66835 
1.21455 -8.14886 -7.66835 
1.91414 -6.69578 -12.0854 
2.34652 -10.5 -14.8153 
-3.78115 -12.8042 -11.6372 
-2.39919 -11.3511 -7.38394 
-2.39919 -6.64886 -7.38394 
-3.78115 -5.19578 -11.6372 
-4.63526 -9 -14.2658 
-8.65221 -11.3042 -8.65221 
-5.48993 -9.85114 -5.48993 
-5.48993 -5.14886 -5.48993 
-8.65221 -3.69578 -8.65221 
-10.6066 -7.5 -10.6066 
-11.6372 -9.80423 -3.78115 
-7.38394 -8.35114 -2.39919 
-7.38394 -3.64886 -2.39919 
-11.6372 -2.19578 -3.78115 
-14.2658 -6 -4.63526 
-12.0854 -8.30423 1.91414 
-7.66835 -6.85114 1.21455 
-7.66835 -2.14886 1.21455 
-12.0854 -0.695775 1.91414 
-14.8153 -4.5 2.34652 
-9.89919 -6.80423 7.19218 
-6.28115 -5.35114 4.56352 
-6.28115 -0.64886 4.56352 
-9.89919 0.804225 7.19218 
-12.1353 -3 8.81678 
-5.55506 -5.30423 10.9024 
-3.52475 -3.85114 6.91771 
-3.52475 0.85114 6.91771 
-5.55506 2.30422 10.9024 
-6.80986 -1.5 13.3651 
-2.03744e-08 -3.80423 12.2361 
-1.01877e-08 -2.35114 7.76393 
1.95356e-07 2.35114 7.76393 
3.12202e-07 3.80422 12.2361 
1.78873e-07 -1.19209e-06 15 
5.55506 -2.30423 10.9024 
3.52475 -0.851143 6.91771 
3.52475 3.85114 6.91771 
5.55506 5.30422 10.9024 
6.80986 1.5 13.3651 
9.89919 -0.804228 7.19218 
6.28115 0.648857 4.56352 
6.28115 5.35114 4.56352 
9.89919 6.80422 7.19218 
12.1353 3 8.81677 
12.0854 0.695772 1.91414 
7.66835 2.14886 1.21454 
7.66835 6.85114 1.21454 
12.0854 8.30422 1.91414 
14.8153 4.5 2.34651 
11.6372 2.19577 -3.78116 
7.38394 3.64886 -2.39919 
7.38394 8.35114 -2.39919 
11.6372 9.80422 -3.78116 
14.2658 6 -4.63527 
8.6522 3.69577 -8.65222 
5.48992 5.14886 -5.48993 
5.48992 9.85114 -5.48993 
8.6522 11.3042 -8.65222 
10.6066 7.5 -10.6066 
3.78114 5.19577 -11.6372 
2.39918 6.64886 -7.38394 
2.39918 11.3511 -7.38394 
3.78114 12.8042 -11.6372 
4.63524 9 -14.2659 
-1.91416 6.69577 -12.0854 
-1.21456 8.14886 -7.66834 
-1.21456 12.8511 -7.66834 
-1.91416 14.3042 -12.0854 
-2.34654 10.5 -14.8153 
-7.1922 8.19577 -9.89918 
-4.56353 9.64886 -6.28115 
-4.56353 14.3511 -6.28115 
-7.1922 15.8042 -9.89918 
-8.8168 12 -12.1352 
-10.9024 9.69577 -5.55504 
-6.91772 11.1489 -3.52474 
-6.91772 15.8511 -3.52474 
-10.9024 17.3042 -5.55504 
-13.3651 13.5 -6.80983 
-12.2361 11.1958 2.3464e-05 
-7.76393 12.6489 1.48909e-05 
-7.76393 17.3511 1.50965e-05 
-12.2361 18.8042 2.37966e-05 
-15 15 2.8968e-05 
3 0 1 2 
3 2 1 3 
3 1 4 3 
3 3 4 5 
3 4 6 5 
3 5 6 7 
3 8 9 6 
3 6 9 7 
3 0 2 8 
3 8 2 9 
3 2 3 10 
3 10 3 11 
3 3 5 11 
3 11 5 12 
3 5 7 12 
3 12 7 13 
3 9 14 7 
3 7 14 13 
3 2 10 9 
3 9 10 14 
3 10 11 15 
3 15 11 16 
3 11 12 16 
3 16 12 17 
3 12 13 17 
3 17 13 18 
3 14 19 13 
3 13 19 18 
3 10 15 14 
3 14 15 19 
3 15 16 20 
3 20 16 21 
3 16 17 21 
3 21 17 22 
3 17 18 22 
3 22 18 23 
3 19 24 18 
3 18 24 23 
3 15 20 19 
3 19 20 24 
3 20 21 25 
3 25 21 26 
3 21 22 26 
3 26 22 27 
3 22 23 27 
3 27 23 28 
3 24 29 23 
3 23 29 28 
3 20 25 24 
3 24 25 29 
3 25 26 30 
3 30 26 31 
3 26 27 31 
3 31 27 32 
3 27 28 32 
3 32 28 33 
3 29 34 28 
3 28 34 33 
3 25 30 29 
3 29 30 34 
3 30 31 35 
3 35 31 36 
3 31 32 36 
3 36 32 37 
3 32 33 37 
3 37 33 38 
3 34 39 33 
3 33 39 38 
3 30 35 34 
3 34 35 39 
3 35 36 40 
3 40 36 41 
3 36 37 41 
3 41 37 42 
3 37 38 42 
3 42 38 43 
3 39 44 38 
3 38 44 43 
3 35 40 39 
3 39 40 44 
3 40 41 45 
3 45 41 46 
3 41 42 46 
3 46 42 47 
3 42 43 47 
3 47 43 48 
3 44 49 43 
3 43 49 48 
3 40 45 44 
3 44 45 49 
3 45 46 50 
3 50 46 51 
3 46 47 51 
3 51 47 52 
3 47 48 52 
3 52 48 53 
3 49 54 48 
3 48 54 53 
3 45 50 49 
3 49 50 54 
3 50 51 55 
3 55 51 56 
3 51 52 56 
3 56 52 57 
3 52 53 57 
3 57 53 58 
3 54 59 53 
3 53 59 58 
3 50 55 54 
3 54 55 59 
3 55 56 60 
3 60 56 61 
3 56 57 61 
3 61 57 62 
3 57 58 62 
3 62 58 63 
3 59 64 58 
3 58 64 63 
3 55 60 59 
3 59 60 64 
3 60 61 65 
3 65 61 66 
3 61 62 66 
3 66 62 67 
3 62 63 67 
3 67 63 68 
3 64 69 63 
3 63 69 68 
3 60 65 64 
3 64 65 69 
3 65 66 70 
3 70 66 71 
3 66 67 71 
3 71 67 72 
3 67 68 72 
3 72 68 73 
3 69 74 68 
3 68 74 73 
3 65 70 69 
3 69 70 74 
3 70 71 75 
3 75 71 76 
3 71 72 76 
3 76 72 77 
3 72 73 77 
3 77 73 78 
3 74 79 73 
3 73 79 78 
3 70 75 74 
3 74 75 79 
3 75 76 80 
3 80 76 81 
3 76 77 81 
3 81 77 82 
3 77 78 82 
3 82 78 83 
3 79 84 78 
3 78 84 83 
3 75 80 79 
3 79 80 84 
3 80 81 85 
3 85 81 86 
3 81 82 86 
3 86 82 87 
3 82 83 87 
3 87 83 88 
3 84 89 83 
3 83 89 88 
3 80 85 84 
3 84 85 89 
3 85 86 90 
3 90 86 91 
3 86 87 91 
3 91 87 92 
3 87 88 92 
3 92 88 93 
3 89 94 88 
3 88 94 93 
3 85 90 89 
3 89 90 94 
3 90 91 95 
3 95 91 96 
3 91 92 96 
3 96 92 97 
3 92 93 97 
3 97 93 98 
3 94 99 93 
3 93 99 98 
3 90 95 94 
3 94 95 99 
3 95 96 100 
3 100 96 101 
3 96 97 101 
3 101 97 102 
3 97 98 102 
3 102 98 103 
3 99 104 98 
3 98 104 103 
3 95 100 99 
3 99 100 104 
3 0 8 1 
3 8 6 1 
3 6 4 1 
3 100 101 104 
3 101 102 104 
3 102 103 104 

