ply
format ascii 1.0
element vertex 105
property float32 x
property float32 y
property float32 z
element face 206
property list uint8 int32 vertex_indices
end_header
0.263 -10 -0.809 
-0.688 -10 -0.5 
-0.688 -10 0.5 
0.263 -10 0.809 
0.851 -10 0 
0.263 -9 -0.809 
-0.688 -9 -0.5 
-0.688 -9 0.5 
0.263 -9 0.809 
0.851 -9 0 
0.263 -8 -0.809 
-0.688 -8 -0.5 
-0.688 -8 0.5 
0.263 -8 0.809 
0.851 -8 0 
0.263 -7 -0.809 
-0.688 -7 -0.5 
-0.688 -7 0.5 
0.263 -7 0.809 
0.851 -7 0 
0.263 -6 -0.809 
-0.688 -6 -0.5 
-0.688 -6 0.5 
0.263 -6 0.809 
0.851 -6 0 
0.263 -5 -0.809 
-0.688 -5 -0.5 
-0.688 -5 0.5 
0.263 -5 0.809 
0.851 -5 0 
0.263 -4 -0.809 
-0.688 -4 -0.5 
-0.688 -4 0.5 
0.263 -4 0.809 
0.851 -4 0 
0.263 -3 -0.809 
-0.688 -3 -0.5 
-0.688 -3 0.5 
0.263 -3 0.809 
0.851 -3 0 
0.263 -2 -0.809 
-0.688 -2 -0.5 
-0.688 -2 0.5 
0.263 -2 0.809 
0.851 -2 0 
0.263 -1 -0.809 
-0.688 -1 -0.5 
-0.688 -1 0.5 
0.263 -1 0.809 
0.851 -1 0 
0.263 0 -0.809 
-0.688 0 -0.5 
-0.688 0 0.5 
0.263 0 0.809 
0.851 0 0 
0.263 1 -0.809 
-0.688 1 -0.5 
-0.688 1 0.5 
0.263 1 0.809 
0.851 1 0 
0.263 2 -0.809 
-0.688 2 -0.5 
-0.688 2 0.5 
0.263 2 0.809 
0.851 2 0 
0.263 3 -0.809 
-0.688 3 -0.5 
-0.688 3 0.5 
0.263 3 0.809 
0.851 3 0 
0.263 4 -0.809 
-0.688 4 -0.5 
-0.688 4 0.5 
0.263 4 0.809 
0.851 4 0 
0.263 5 -0.809 
-0.688 5 -0.5 
-0.688 5 0.5 
0.263 5 0.809 
0.851 5 0 
0.263 6 -0.809 
-0.688 6 -0.5 
-0.688 6 0.5 
0.263 6 0.809 
0.851 6 0 
0.263 7 -0.809 
-0.688 7 -0.5 
-0.688 7 0.5 
0.263 7 0.809 
0.851 7 0 
0.263 8 -0.809 
-0.688 8 -0.5 
-0.688 8 0.5 
0.263 8 0.809 
0.851 8 0 
0.263 9 -0.809 
-0.688 9 -0.5 
-0.688 9 0.5 
0.263 9 0.809 
0.851 9 0 
0.263 10 -0.809 
-0.688 10 -0.5 
-0.688 10 0.5 
0.263 10 0.809 
0.851 10 0 
3 0 1 5 
3 5 1 6 
3 1 2 6 
3 6 2 7 
3 2 3 7 
3 7 3 8 
3 3 4 8 
3 8 4 9 
3 4 0 9 
3 9 0 5 
3 5 6 10 
3 10 6 11 
3 6 7 11 
3 11 7 12 
3 7 8 12 
3 12 8 13 
3 8 9 13 
3 13 9 14 
3 9 5 14 
3 14 5 10 
3 10 11 15 
3 15 11 16 
3 11 12 16 
3 16 12 17 
3 12 13 17 
3 17 13 18 
3 13 14 18 
3 18 14 19 
3 14 10 19 
3 19 10 15 
3 15 16 20 
3 20 16 21 
3 16 17 21 
3 21 17 22 
3 17 18 22 
3 22 18 23 
3 18 19 23 
3 23 19 24 
3 19 15 24 
3 24 15 20 
3 20 21 25 
3 25 21 26 
3 21 22 26 
3 26 22 27 
3 22 23 27 
3 27 23 28 
3 23 24 28 
3 28 24 29 
3 24 20 29 
3 29 20 25 
3 25 26 30 
3 30 26 31 
3 26 27 31 
3 31 27 32 
3 27 28 32 
3 32 28 33 
3 28 29 33 
3 33 29 34 
3 29 25 34 
3 34 25 30 
3 30 31 35 
3 35 31 36 
3 31 32 36 
3 36 32 37 
3 32 33 37 
3 37 33 38 
3 33 34 38 
3 38 34 39 
3 34 30 39 
3 39 30 35 
3 35 36 40 
3 40 36 41 
3 36 37 41 
3 41 37 42 
3 37 38 42 
3 42 38 43 
3 38 39 43 
3 43 39 44 
3 39 35 44 
3 44 35 40 
3 40 41 45 
3 45 41 46 
3 41 42 46 
3 46 42 47 
3 42 43 47 
3 47 43 48 
3 43 44 48 
3 48 44 49 
3 44 40 49 
3 49 40 45 
3 45 46 50 
3 50 46 51 
3 46 47 51 
3 51 47 52 
3 47 48 52 
3 52 48 53 
3 48 49 53 
3 53 49 54 
3 49 45 54 
3 54 45 50 
3 50 51 55 
3 55 51 56 
3 51 52 56 
3 56 52 57 
3 52 53 57 
3 57 53 58 
3 53 54 58 
3 58 54 59 
3 54 50 59 
3 59 50 55 
3 55 56 60 
3 60 56 61 
3 56 57 61 
3 61 57 62 
3 57 58 62 
3 62 58 63 
3 58 59 63 
3 63 59 64 
3 59 55 64 
3 64 55 60 
3 60 61 65 
3 65 61 66 
3 61 62 66 
3 66 62 67 
3 62 63 67 
3 67 63 68 
3 63 64 68 
3 68 64 69 
3 64 60 69 
3 69 60 65 
3 65 66 70 
3 70 66 71 
3 66 67 71 
3 71 67 72 
3 67 68 72 
3 72 68 73 
3 68 69 73 
3 73 69 74 
3 69 65 74 
3 74 65 70 
3 70 71 75 
3 75 71 76 
3 71 72 76 
3 76 72 77 
3 72 73 77 
3 77 73 78 
3 73 74 78 
3 78 74 79 
3 74 70 79 
3 79 70 75 
3 75 76 80 
3 80 76 81 
3 76 77 81 
3 81 77 82 
3 77 78 82 
3 82 78 83 
3 78 79 83 
3 83 79 84 
3 79 75 84 
3 84 75 80 
3 80 81 85 
3 85 81 86 
3 81 82 86 
3 86 82 87 
3 82 83 87 
3 87 83 88 
3 83 84 88 
3 88 84 89 
3 84 80 89 
3 89 80 85 
3 85 86 90 
3 90 86 91 
3 86 87 91 
3 91 87 92 
3 87 88 92 
3 92 88 93 
3 88 89 93 
3 93 89 94 
3 89 85 94 
3 94 85 90 
3 90 91 95 
3 95 91 96 
3 91 92 96 
3 96 92 97 
3 92 93 97 
3 97 93 98 
3 93 94 98 
3 98 94 99 
3 94 90 99 
3 99 90 95 
3 95 96 100 
3 100 96 101 
3 96 97 101 
3 101 97 102 
3 97 98 102 
3 102 98 103 
3 98 99 103 
3 103 99 104 
3 99 95 104 
3 104 95 100 
3 0 4 1 
3 4 3 1 
3 3 2 1 
3 100 101 104 
3 101 102 104 
3 102 103 104 

