ply
format ascii 1.0
element vertex 96
property float32 x
property float32 y
property float32 z
element face 188
property list uint8 int32 vertex_indices
end_header
-1.5 -0.500001 -2 
-0.5 -0.500001 -2 
0.5 -0.500001 -2 
1.5 -0.500001 -2 
-1.5 -0.5 -1 
-0.5 -0.5 -1 
0.5 -0.5 -1 
1.5 -0.5 -1 
-1.5 -0.5 1.63397e-07 
-0.5 -0.5 1.63397e-07 
0.5 -0.5 1.63397e-07 
1.5 -0.5 1.63397e-07 
-1.5 -0.5 1 
-0.5 -0.5 1 
0.5 -0.5 1 
1.5 -0.5 1 
-1.5 -0.499999 2 
-0.5 -0.499999 2 
0.5 -0.499999 2 
1.5 -0.499999 2 
-1.5 0.500001 2 
-0.5 0.500001 2 
0.5 0.500001 2 
1.5 0.500001 2 
-1.5 0.5 1 
-0.5 0.5 1 
0.5 0.5 1 
1.5 0.5 1 
-1.5 0.5 -1.63397e-07 
-0.5 0.5 -1.63397e-07 
0.5 0.5 -1.63397e-07 
1.5 0.5 -1.63397e-07 
-1.5 0.5 -1 
-0.5 0.5 -1 
0.5 0.5 -1 
1.5 0.5 -1 
-1.5 0.499999 -2 
-0.5 0.499999 -2 
0.5 0.499999 -2 
1.5 0.499999 -2 
-1.673 0.499999 -2.956 
-1.844 0.499999 -3.912 
-2.013 0.499998 -4.868 
-0.674 0.499999 -3.014 
-0.851 0.499999 -4.028 
-1.029 0.499998 -5.041 
-0.674 -0.500001 -3.014 
-0.851 -0.500001 -4.028 
-1.029 -0.500002 -5.041 
-1.673 -0.500001 -2.956 
-1.844 -0.500001 -3.912 
-2.013 -0.500002 -4.868 
0.674 0.499999 -3.014 
0.851 0.499999 -4.028 
1.029 0.499998 -5.041 
1.673 0.499999 -2.956 
1.844 0.499999 -3.912 
2.013 0.499998 -4.868 
1.673 -0.500001 -2.956 
1.844 -0.500001 -3.912 
2.013 -0.500002 -4.868 
0.674 -0.500001 -3.014 
0.851 -0.500001 -4.028 
1.029 -0.500002 -5.041 
2.453 0.5 1.508 
3.403 0.500001 2.03 
4.348 0.500001 2.567 
2.453 -0.499999 1.508 
3.403 -0.499999 2.03 
4.348 -0.499999 2.567 
2.279 0.500001 2.492 
3.061 0.500001 2.97 
3.848 0.500001 3.433 
2.279 -0.499999 2.492 
3.061 -0.499999 2.97 
3.848 -0.499999 3.433 
-2.279 0.5 0.508 
-3.061 0.5 0.0299998 
-3.848 0.5 -0.433 
-2.279 -0.5 0.508 
-3.061 -0.5 0.0300002 
-3.848 -0.5 -0.433 
-2.453 -0.5 1.492 
-3.403 -0.5 0.97 
-4.348 -0.5 0.433 
-2.453 0.5 1.492 
-3.403 0.5 0.97 
-4.348 0.5 0.433 
-0.6 -0.599999 3 
0.6 -0.599999 3 
0.6 0.600001 3 
-0.6 0.600001 3 
-0.48 -0.479999 4 
0.48 -0.479999 4 
0.48 0.480001 4 
-0.48 0.480001 4 
3 0 1 4 
3 4 1 5 
3 1 2 5 
3 5 2 6 
3 2 3 6 
3 6 3 7 
3 4 5 8 
3 8 5 9 
3 5 6 9 
3 9 6 10 
3 6 7 10 
3 10 7 11 
3 8 9 12 
3 12 9 13 
3 9 10 13 
3 13 10 14 
3 10 11 14 
3 14 11 15 
3 12 13 16 
3 16 13 17 
3 13 14 17 
3 17 14 18 
3 14 15 18 
3 18 15 19 
3 16 17 20 
3 20 17 21 
3 92 93 95 
3 95 93 94 
3 18 19 22 
3 22 19 23 
3 20 21 24 
3 24 21 25 
3 21 22 25 
3 25 22 26 
3 22 23 26 
3 26 23 27 
3 24 25 28 
3 28 25 29 
3 25 26 29 
3 29 26 30 
3 26 27 30 
3 30 27 31 
3 28 29 32 
3 32 29 33 
3 29 30 33 
3 33 30 34 
3 30 31 34 
3 34 31 35 
3 32 33 36 
3 36 33 37 
3 33 34 37 
3 37 34 38 
3 34 35 38 
3 38 35 39 
3 42 45 51 
3 51 45 48 
3 37 38 1 
3 1 38 2 
3 54 57 63 
3 63 57 60 
3 3 39 7 
3 7 39 35 
3 7 35 11 
3 11 35 31 
3 11 31 15 
3 15 31 27 
3 69 66 75 
3 75 66 72 
3 36 0 32 
3 32 0 4 
3 32 4 28 
3 28 4 8 
3 28 8 24 
3 24 8 12 
3 78 81 87 
3 87 81 84 
3 37 43 36 
3 36 43 40 
3 43 44 40 
3 40 44 41 
3 44 45 41 
3 41 45 42 
3 37 1 43 
3 43 1 46 
3 43 46 44 
3 44 46 47 
3 44 47 45 
3 45 47 48 
3 1 0 46 
3 46 0 49 
3 46 49 47 
3 47 49 50 
3 47 50 48 
3 48 50 51 
3 0 36 49 
3 49 36 40 
3 49 40 50 
3 50 40 41 
3 50 41 51 
3 51 41 42 
3 38 39 52 
3 52 39 55 
3 52 55 53 
3 53 55 56 
3 53 56 54 
3 54 56 57 
3 39 3 55 
3 55 3 58 
3 55 58 56 
3 56 58 59 
3 56 59 57 
3 57 59 60 
3 2 61 3 
3 3 61 58 
3 61 62 58 
3 58 62 59 
3 62 63 59 
3 59 63 60 
3 2 38 61 
3 61 38 52 
3 61 52 62 
3 62 52 53 
3 62 53 63 
3 63 53 54 
3 15 27 67 
3 67 27 64 
3 67 64 68 
3 68 64 65 
3 68 65 69 
3 69 65 66 
3 27 23 64 
3 64 23 70 
3 64 70 65 
3 65 70 71 
3 65 71 66 
3 66 71 72 
3 23 19 70 
3 70 19 73 
3 70 73 71 
3 71 73 74 
3 71 74 72 
3 72 74 75 
3 15 67 19 
3 19 67 73 
3 67 68 73 
3 73 68 74 
3 68 69 74 
3 74 69 75 
3 24 12 76 
3 76 12 79 
3 76 79 77 
3 77 79 80 
3 77 80 78 
3 78 80 81 
3 16 82 12 
3 12 82 79 
3 82 83 79 
3 79 83 80 
3 83 84 80 
3 80 84 81 
3 16 20 82 
3 82 20 85 
3 82 85 83 
3 83 85 86 
3 83 86 84 
3 84 86 87 
3 20 24 85 
3 85 24 76 
3 85 76 86 
3 86 76 77 
3 86 77 87 
3 87 77 78 
3 17 18 88 
3 88 18 89 
3 18 22 89 
3 89 22 90 
3 22 21 90 
3 90 21 91 
3 21 17 91 
3 91 17 88 
3 88 89 92 
3 92 89 93 
3 89 90 93 
3 93 90 94 
3 90 91 94 
3 94 91 95 
3 91 88 95 
3 95 88 92 