ply
format ascii 1.0
element vertex 68
property float32 x
property float32 y
property float32 z
element face 132
property list uint8 int32 vertex_indices
end_header
0.376298 0.40487 -0.639018 
-0.376298 0.40487 -0.639018 
-0.752595 0.40487 0 
-0.376298 0.40487 0.639018 
0.376298 0.40487 0.639018 
0.752595 0.40487 0 
0.349169 0.80487 -0.591842 
-0.349169 0.80487 -0.591842 
-0.697463 0.80487 0 
-0.349169 0.80487 0.591842 
0.349169 0.80487 0.591842 
0.697463 0.80487 0 
0.290537 1.24187 -0.493202 
-0.290537 1.24187 -0.493202 
-0.581074 1.24187 0 
-0.290537 1.24187 0.493202 
0.290537 1.24187 0.493202 
0.581074 1.24187 0 
0.336043 1.69287 -0.570398 
-0.336043 1.69287 -0.570398 
-0.67121 1.69287 0 
-0.336043 1.69287 0.570398 
0.336043 1.69287 0.570398 
0.67121 1.69287 0 
0.364921 2.16287 -0.61929 
-0.364921 2.16287 -0.61929 
-0.728967 2.16287 0 
-0.364921 2.16287 0.61929 
0.364921 2.16287 0.61929 
0.728967 2.16287 0 
0.371922 2.56287 -0.634729 
-0.378923 2.56287 -0.634729 
-0.754346 2.56287 0.00257323 
-0.378923 2.56287 0.639876 
0.371922 2.56287 0.639876 
0.747345 2.56287 0.00257323 
0.35792 2.94387 -0.607281 
-0.35792 2.94387 -0.607281 
-0.715841 2.94387 0 
-0.35792 2.94387 0.607281 
0.35792 2.94387 0.607281 
0.714966 2.94387 0 
0.281786 3.36287 -0.477762 
-0.281786 3.36287 -0.477762 
-0.562696 3.36287 0 
-0.281786 3.36287 0.477762 
0.281786 3.36287 0.477762 
0.562696 3.36287 0 
0.175022 3.67387 -0.297636 
-0.175022 3.67387 -0.297636 
-0.350044 3.67387 0 
-0.175022 3.67387 0.297636 
0.175022 3.67387 0.297636 
0.350044 3.67387 0 
0.187274 4.04087 -0.317365 
-0.187274 4.04087 -0.317365 
-0.373672 4.04087 0 
-0.187274 4.04087 0.317365 
0.187274 4.04087 0.317365 
0.373672 4.04087 0 
0.187274 4.40487 -0.317365 
-0.187274 4.40487 -0.317365 
-0.373672 4.40487 0 
-0.187274 4.40487 0.317365 
0.187274 4.40487 0.317365 
0.373672 4.40487 0 
0 0.40487 0 
0 4.40487 0 
3 0 1 6 
3 6 1 7 
3 1 2 7 
3 7 2 8 
3 2 3 8 
3 8 3 9 
3 3 4 9 
3 9 4 10 
3 4 5 10 
3 10 5 11 
3 5 0 11 
3 11 0 6 
3 6 7 12 
3 12 7 13 
3 7 8 13 
3 13 8 14 
3 8 9 14 
3 14 9 15 
3 9 10 15 
3 15 10 16 
3 10 11 16 
3 16 11 17 
3 11 6 17 
3 17 6 12 
3 12 13 18 
3 18 13 19 
3 13 14 19 
3 19 14 20 
3 14 15 20 
3 20 15 21 
3 15 16 21 
3 21 16 22 
3 16 17 22 
3 22 17 23 
3 17 12 23 
3 23 12 18 
3 18 19 24 
3 24 19 25 
3 19 20 25 
3 25 20 26 
3 20 21 26 
3 26 21 27 
3 21 22 27 
3 27 22 28 
3 22 23 28 
3 28 23 29 
3 23 18 29 
3 29 18 24 
3 24 25 30 
3 30 25 31 
3 25 26 31 
3 31 26 32 
3 26 27 32 
3 32 27 33 
3 28 34 27 
3 27 34 33 
3 29 35 28 
3 28 35 34 
3 24 30 29 
3 29 30 35 
3 31 37 30 
3 30 37 36 
3 32 38 31 
3 31 38 37 
3 33 39 32 
3 32 39 38 
3 33 34 39 
3 39 34 40 
3 34 35 40 
3 40 35 41 
3 35 30 41 
3 41 30 36 
3 36 37 42 
3 42 37 43 
3 37 38 43 
3 43 38 44 
3 38 39 44 
3 44 39 45 
3 39 40 45 
3 45 40 46 
3 40 41 46 
3 46 41 47 
3 41 36 47 
3 47 36 42 
3 42 43 48 
3 48 43 49 
3 43 44 49 
3 49 44 50 
3 44 45 50 
3 50 45 51 
3 45 46 51 
3 51 46 52 
3 46 47 52 
3 52 47 53 
3 47 42 53 
3 53 42 48 
3 48 49 54 
3 54 49 55 
3 49 50 55 
3 55 50 56 
3 50 51 56 
3 56 51 57 
3 51 52 57 
3 57 52 58 
3 52 53 58 
3 58 53 59 
3 53 48 59 
3 59 48 54 
3 54 55 60 
3 60 55 61 
3 55 56 61 
3 61 56 62 
3 56 57 62 
3 62 57 63 
3 57 58 63 
3 63 58 64 
3 58 59 64 
3 64 59 65 
3 59 54 65 
3 65 54 60 
3 1 0 66 
3 2 1 66 
3 3 2 66 
3 4 3 66 
3 5 4 66 
3 0 5 66 
3 60 61 67 
3 61 62 67 
3 62 63 67 
3 63 64 67 
3 64 65 67 
3 65 60 67 

