ply
format ascii 1.0
element vertex 70
property float32 x
property float32 y
property float32 z
element face 136
property list uint8 int32 vertex_indices
end_header
1.116 0.246 -0.008 
-0.61 -0.43 0.944 
0.197 -0.658 -0.695 
-0.092 -0.322 0.399 
-0.795 -0.733 0.539 
-0.138 0.532 -0.055 
-0.32 -0.435 -0.545 
1.382 -0.225 -0.624 
0.437 -0.199 0.696 
0.639 -0.761 -0.499 
-0.526 0.542 0.963 
0.335 -0.757 -0.073 
1.107 -0.148 0.163 
-0.53 -0.583 -0.112 
-0.955 0.162 0.982 
-0.128 -0.575 -0.002 
0.37 -0.468 0.383 
0.032 -0.609 -0.964 
-0.482 -0.576 -0.885 
1.053 -0.32 -0.803 
-0.356 -0.082 1.095 
0.815 -0.281 0.443 
-0.373 -0.396 0.421 
1.206 -0.082 -0.293 
-1.076 -0.054 0.547 
-0.201 -0.012 0.784 
0.868 -0.616 -0.057 
-1.008 -0.086 0.16 
1.323 0.091 -0.73 
1.041 0.304 -0.622 
0.789 0.527 -0.765 
-0.195 0.003 0.509 
-1.094 -0.444 0.492 
-0.945 0.123 -0.284 
0.94 0.253 0.242 
0.615 0.157 0.573 
-0.826 0.263 0.277 
-0.489 0.187 -0.643 
-0.968 -0.268 0.933 
-0.804 -0.452 0.15 
-0.387 0.215 0.779 
-0.473 0.389 0.236 
0.359 0.576 0.085 
-0.736 0.636 1.169 
-0.811 -0.415 -0.323 
-0.103 0.404 -0.562 
0.616 0.387 0.39 
0.055 0.795 -0.247 
-0.261 0.241 0.484 
1.389 -0.005 -0.414 
0.084 0.377 0.396 
-0.187 0.579 -0.966 
0.176 0.704 -0.647 
0.436 0.731 -0.182 
0.902 0.486 -0.07 
-0.749 0.429 -0.17 
0.412 0.427 -0.957 
-0.088 0.141 -0.894 
-0.472 0.255 -0.976 
0.8 0.074 -0.982 
-0.577 -0.213 -0.956 
0.656 -0.526 -0.946 
-0.842 0.403 0.718 
-0.323 0.464 0.972 
-0.045 0.314 1.242 
0.861 0.004 0.368 
-0.593 0.252 0.711 
0.189 -0.257 -0.917 
-0.749 0.088 1.019 
-0.566 0.024 1.065 
3 35 21 65 
3 10 68 66 
3 52 56 51 
3 12 23 0 
3 31 8 50 
3 30 54 0 
3 29 23 49 
3 22 4 39 
3 19 26 9 
3 16 11 26 
3 4 38 32 
3 48 31 50 
3 67 57 56 
3 67 56 59 
3 67 59 61 
3 67 61 17 
3 67 17 60 
3 67 60 57 
3 2 11 15 
3 22 39 13 
3 26 21 16 
3 47 42 53 
3 29 30 0 
3 9 26 11 
3 56 57 51 
3 61 2 17 
3 55 41 5 
3 46 35 34 
3 19 23 26 
3 3 15 16 
3 25 64 20 
3 5 47 45 
3 46 50 35 
3 42 46 54 
3 7 28 49 
3 27 32 24 
3 21 26 12 
3 19 61 59 
3 6 37 60 
3 39 4 32 
3 28 7 59 
3 41 36 48 
3 57 60 58 
3 14 38 68 
3 46 42 50 
3 39 44 13 
3 34 12 0 
3 21 8 16 
3 0 54 34 
3 25 22 31 
3 15 13 6 
3 47 5 42 
3 35 8 21 
3 0 23 29 
3 44 37 6 
3 53 54 30 
3 43 62 14 
3 59 56 30 
3 58 37 45 
3 45 51 58 
3 9 61 19 
3 10 66 62 
3 22 25 1 
3 23 12 26 
3 44 33 37 
3 8 31 3 
3 3 16 8 
3 15 6 2 
3 47 53 52 
3 15 22 13 
3 9 11 2 
3 48 50 41 
3 44 39 27 
3 13 44 6 
3 54 46 34 
3 22 3 31 
3 25 20 1 
3 58 51 57 
3 49 23 7 
3 4 22 1 
3 12 34 65 
3 42 5 50 
3 53 42 54 
3 45 52 51 
3 7 23 19 
3 38 4 1 
3 37 55 45 
3 14 24 38 
3 18 6 60 
3 58 60 37 
3 29 59 30 
3 9 2 61 
3 41 55 36 
3 30 52 53 
3 29 28 59 
3 52 45 47 
3 36 24 62 
3 44 27 33 
3 38 24 32 
3 59 7 19 
3 32 27 39 
3 22 15 3 
3 48 40 25 
3 31 48 25 
3 29 49 28 
3 17 2 6 
3 60 17 18 
3 6 18 17 
3 36 55 33 
3 27 36 33 
3 11 16 15 
3 37 33 55 
3 24 14 62 
3 55 5 45 
3 24 36 27 
3 63 25 40 
3 40 48 66 
3 63 64 25 
3 50 8 35 
3 50 5 41 
3 30 56 52 
3 65 34 35 
3 65 21 12 
3 43 10 62 
3 64 69 20 
3 62 66 36 
3 66 48 36 
3 10 43 68 
3 40 68 69 
3 63 40 69 
3 68 43 14 
3 63 69 64 
3 40 66 68 
3 69 1 20 
3 68 38 69 
3 69 38 1 